<svg width="20" height="20" viewBox="0 0 20 20" fill="none" xmlns="http://www.w3.org/2000/svg">
<path d="M9.9995 17.2113C10.9455 17.2113 11.8095 17.1052 12.5974 16.9218L10.8405 15.1118C10.5675 15.1334 10.2905 15.1509 9.9995 15.1509C4.64863 15.1509 2.57567 11.1888 2.07369 10C2.45062 9.13342 2.95971 8.33454 3.58165 7.63367L2.18368 6.19347C0.64572 7.91079 0.0627333 9.64046 0.0517336 9.67446C-0.0172445 9.88602 -0.0172445 10.115 0.0517336 10.3266C0.0727331 10.3946 2.36668 17.2113 9.9995 17.2113ZM9.9995 2.78871C8.16254 2.78871 6.65358 3.19666 5.39561 3.79932L1.70669 0L0.292728 1.45668L18.2923 20L19.7063 18.5433L16.3874 15.1241C19.0013 13.1142 19.9343 10.3698 19.9483 10.3266C20.0172 10.115 20.0172 9.88602 19.9483 9.67446C19.9263 9.60544 17.6323 2.78871 9.9995 2.78871ZM14.9714 13.6654L12.6914 11.3166C12.8814 10.9148 12.9994 10.4729 12.9994 10C12.9994 8.30947 11.6405 6.90945 9.9995 6.90945C9.54051 6.90945 9.11152 7.03101 8.72253 7.22777L6.91457 5.3652C7.90707 5.01433 8.95023 4.83981 9.9995 4.84908C15.3504 4.84908 17.4233 8.81117 17.9253 10C17.6233 10.7129 16.7593 12.4127 14.9714 13.6654Z" fill="#757575"/>
</svg>
