<svg width="12" height="12" viewBox="0 0 12 12" fill="none" xmlns="http://www.w3.org/2000/svg">
<path d="M10.2106 8.57833C10.5123 8.57833 10.7667 8.68359 10.9737 8.89412C11.1807 9.10465 11.2825 9.35026 11.279 9.63096L7.05267 11.2099L3.36846 10.1573V5.42044H4.39478L8.22109 6.83623C8.49478 6.945 8.63162 7.14149 8.63162 7.4257C8.63162 7.59061 8.57197 7.73447 8.45267 7.85728C8.33337 7.98009 8.1825 8.045 8.00004 8.05202H6.52636L5.60531 7.69938L5.43162 8.19412L6.52636 8.57833H10.2106ZM8.1053 1.33096C8.47723 0.899383 8.95092 0.683594 9.52636 0.683594C10.0036 0.683594 10.4071 0.859032 10.7369 1.20991C11.0667 1.56079 11.2421 1.9643 11.2632 2.42044C11.2632 2.78184 11.0878 3.21342 10.7369 3.71517C10.386 4.21693 10.0404 4.63623 9.70004 4.97307C9.35969 5.30991 8.82811 5.80991 8.1053 6.47307C7.37548 5.80991 6.83864 5.30991 6.49478 4.97307C6.15092 4.63623 5.80531 4.21693 5.45794 3.71517C5.11057 3.21342 4.94039 2.78184 4.94741 2.42044C4.94741 1.94324 5.11759 1.53973 5.45794 1.20991C5.79829 0.880085 6.20881 0.704646 6.68952 0.683594C7.25092 0.683594 7.72285 0.899383 8.1053 1.33096ZM0.202148 5.42044H2.31583V11.2099H0.202148V5.42044Z" fill="#C91757"/>
</svg>
