<svg width="20" height="20" viewBox="0 0 20 20" fill="none" xmlns="http://www.w3.org/2000/svg">
<path opacity="0.5" d="M10.0006 6C11.0615 6 12.0789 6.42143 12.8291 7.17157C13.5792 7.92172 14.0006 8.93913 14.0006 10C14.0006 11.0609 13.5792 12.0783 12.8291 12.8284C12.0789 13.5786 11.0615 14 10.0006 14C8.93976 14 7.92234 13.5786 7.1722 12.8284C6.42205 12.0783 6.00063 11.0609 6.00063 10C6.00063 8.93913 6.42205 7.92172 7.1722 7.17157C7.92234 6.42143 8.93976 6 10.0006 6ZM10.0006 8C9.47019 8 8.96148 8.21072 8.58641 8.58579C8.21134 8.96086 8.00063 9.46957 8.00063 10C8.00063 10.5304 8.21134 11.0391 8.58641 11.4142C8.96148 11.7893 9.47019 12 10.0006 12C10.5311 12 11.0398 11.7893 11.4148 11.4142C11.7899 11.0391 12.0006 10.5304 12.0006 10C12.0006 9.46957 11.7899 8.96086 11.4148 8.58579C11.0398 8.21072 10.5311 8 10.0006 8ZM8.00063 20C7.75063 20 7.54063 19.82 7.50063 19.58L7.13063 16.93C6.50063 16.68 5.96063 16.34 5.44063 15.94L2.95062 16.95C2.73062 17.03 2.46063 16.95 2.34063 16.73L0.340625 13.27C0.279421 13.167 0.257844 13.0452 0.27993 12.9274C0.302015 12.8096 0.366251 12.7039 0.460625 12.63L2.57063 10.97L2.50063 10L2.57063 9L0.460625 7.37C0.366251 7.29613 0.302015 7.19042 0.27993 7.07263C0.257844 6.95484 0.279421 6.83304 0.340625 6.73L2.34063 3.27C2.46063 3.05 2.73062 2.96 2.95062 3.05L5.44063 4.05C5.96063 3.66 6.50063 3.32 7.13063 3.07L7.50063 0.42C7.54063 0.18 7.75063 0 8.00063 0H12.0006C12.2506 0 12.4606 0.18 12.5006 0.42L12.8706 3.07C13.5006 3.32 14.0406 3.66 14.5606 4.05L17.0506 3.05C17.2706 2.96 17.5406 3.05 17.6606 3.27L19.6606 6.73C19.7906 6.95 19.7306 7.22 19.5406 7.37L17.4306 9L17.5006 10L17.4306 11L19.5406 12.63C19.7306 12.78 19.7906 13.05 19.6606 13.27L17.6606 16.73C17.5406 16.95 17.2706 17.04 17.0506 16.95L14.5606 15.95C14.0406 16.34 13.5006 16.68 12.8706 16.93L12.5006 19.58C12.4606 19.82 12.2506 20 12.0006 20H8.00063ZM9.25062 2L8.88062 4.61C7.68062 4.86 6.62063 5.5 5.85063 6.39L3.44063 5.35L2.69063 6.65L4.80063 8.2C4.40063 9.36667 4.40063 10.6333 4.80063 11.8L2.68062 13.36L3.43062 14.66L5.86063 13.62C6.63063 14.5 7.68062 15.14 8.87062 15.38L9.24062 18H10.7606L11.1306 15.39C12.3206 15.14 13.3706 14.5 14.1406 13.62L16.5706 14.66L17.3206 13.36L15.2006 11.81C15.6006 10.64 15.6006 9.37 15.2006 8.2L17.3106 6.65L16.5606 5.35L14.1506 6.39C13.3648 5.48032 12.299 4.85768 11.1206 4.62L10.7506 2H9.25062Z" fill="#C91757"/>
</svg>
