<svg width="23" height="14" viewBox="0 0 23 14" fill="none" xmlns="http://www.w3.org/2000/svg">
<path d="M15.625 6C17.3542 6 18.7396 4.66 18.7396 3C18.7396 1.34 17.3542 0 15.625 0C13.8958 0 12.5 1.34 12.5 3C12.5 4.66 13.8958 6 15.625 6ZM7.29167 6C9.02083 6 10.4062 4.66 10.4062 3C10.4062 1.34 9.02083 0 7.29167 0C5.5625 0 4.16667 1.34 4.16667 3C4.16667 4.66 5.5625 6 7.29167 6ZM7.29167 8C4.86458 8 0 9.17 0 11.5V14H14.5833V11.5C14.5833 9.17 9.71875 8 7.29167 8ZM15.625 8C15.3229 8 14.9792 8.02 14.6146 8.05C15.8229 8.89 16.6667 10.02 16.6667 11.5V14H22.9167V11.5C22.9167 9.17 18.0521 8 15.625 8Z" fill="#C91757"/>
</svg>
