<svg width="70" height="70" viewBox="0 0 70 70" fill="none" xmlns="http://www.w3.org/2000/svg">
<circle cx="35" cy="35" r="35" fill="#C91757"/>
<path d="M49.5168 39.9762L48.8356 41.5912C51.1685 46.8641 51.0138 47.0208 50.5608 47.4782L47.5804 50.39L47.2847 50.6392H46.9394C46.7573 50.6392 46.2138 50.6392 41.6834 48.5844L40.0161 49.2567C37.8611 54.5987 37.6401 54.5987 37.0091 54.5987H32.8048C32.1745 54.5987 31.9295 54.5994 29.9309 49.2376L28.2707 48.5636C25.2092 49.8563 23.4137 50.5107 22.9291 50.5107L22.5317 50.4984L19.326 47.3554C18.8396 46.898 18.6699 46.7367 21.1366 41.5454L20.4578 39.9359C15 37.826 15 37.6213 15 36.9757V32.8534C15 32.2068 15 31.9788 20.4762 30.0172L21.1548 28.4106C18.8222 23.1405 18.9789 22.9823 19.4321 22.5293L22.4124 19.614L22.7088 19.3591H23.0557C23.235 19.3591 23.7719 19.3591 28.3086 21.4182L29.973 20.7413C32.1283 15.3999 32.3497 15.4012 32.9821 15.4012H37.1871C37.8301 15.4012 38.0581 15.4012 40.0627 20.7603L41.7314 21.4351C44.7894 20.142 46.5808 19.4855 47.0623 19.4855L47.4624 19.4968L50.6926 22.659C51.1522 23.1228 51.3131 23.2831 48.8601 28.453L49.5342 30.0637C54.9999 32.1757 54.9999 32.3974 54.9999 33.0285V37.1462C54.9993 37.795 54.9993 38.0215 49.5168 39.9762ZM34.9989 28.1424C31.1435 28.1424 28.0041 31.2207 28.0041 35.0032C28.0041 38.7829 31.1436 41.8583 34.9989 41.8583C38.8523 41.8583 41.9851 38.7822 41.9851 35.0032C41.9844 31.2207 38.8516 28.1424 34.9989 28.1424Z" fill="white"/>
</svg>
