<svg width="66" height="66" viewBox="0 0 66 66" fill="none" xmlns="http://www.w3.org/2000/svg">
<path d="M57.75 16.5H48.95L44 11H27.5V16.5H41.525L46.75 22H57.75V55H13.75V30.25H8.25V55C8.25 58.025 10.725 60.5 13.75 60.5H57.75C60.775 60.5 63.25 58.025 63.25 55V22C63.25 18.975 60.775 16.5 57.75 16.5ZM22 38.5C22 50.7375 36.8225 56.8975 45.485 48.235C54.1475 39.5725 47.9875 24.75 35.75 24.75C28.16 24.75 22 30.91 22 38.5ZM35.75 30.25C37.9183 30.3123 39.9808 31.2015 41.5146 32.7354C43.0485 34.2692 43.9377 36.3317 44 38.5C43.9377 40.6683 43.0485 42.7308 41.5146 44.2646C39.9808 45.7985 37.9183 46.6877 35.75 46.75C33.5817 46.6877 31.5192 45.7985 29.9854 44.2646C28.4515 42.7308 27.5623 40.6683 27.5 38.5C27.5623 36.3317 28.4515 34.2692 29.9854 32.7354C31.5192 31.2015 33.5817 30.3123 35.75 30.25ZM13.75 16.5H22V11H13.75V2.75H8.25V11H0V16.5H8.25V24.75H13.75" fill="white"/>
</svg>
