<svg width="54" height="54" viewBox="0 0 54 54" xmlns="http://www.w3.org/2000/svg">
<g clip-path="url(#clip0)">
<path d="M18.0433 18.0443C22.9807 13.1069 31.0193 13.1069 35.9567 18.0443C40.8941 22.9817 40.8941 31.0203 35.9567 35.9577C31.0193 40.895 22.9807 40.895 18.0433 35.9577C13.1059 31.0203 13.1059 22.9817 18.0433 18.0443ZM15.8041 15.8051C9.62066 21.9886 9.62066 32.0134 15.8041 38.1968C21.9876 44.3803 32.0124 44.3803 38.1959 38.1968C44.3793 32.0134 44.3793 21.9886 38.1959 15.8051C32.0124 9.62165 21.9876 9.62165 15.8041 15.8051ZM31.4783 20.2835L27 24.7618L22.5216 20.2835L20.2825 22.5226L24.7608 27.001L20.2825 31.4793L22.5216 33.7185L27 29.2401L31.4783 33.7185L33.7175 31.4793L29.2392 27.001L33.7175 22.5226L31.4783 20.2835Z" />
</g>
<defs>
<clipPath id="clip0">
<rect x="0.129883" y="27.001" width="38" height="38" transform="rotate(-45 0.129883 27.001)" />
</clipPath>
</defs>
</svg>
