<svg width="523" height="241" viewBox="0 0 523 241" fill="none" xmlns="http://www.w3.org/2000/svg">
<g opacity="0.2">
<path opacity="0.5" d="M21.7641 87.9441C23.0234 88.017 24.2419 87.2211 24.4858 86.1663C24.7297 85.1115 23.9066 84.1973 22.6473 84.1243C21.388 84.0513 20.1695 84.8473 19.9256 85.9021C19.6817 86.9569 20.5049 87.8711 21.7641 87.9441Z" fill="white"/>
<path opacity="0.5" d="M45.4575 133.583C46.7168 133.656 47.9353 132.86 48.1792 131.805C48.4231 130.75 47.5999 129.836 46.3407 129.763C45.0814 129.69 43.8628 130.486 43.619 131.541C43.3751 132.595 44.1982 133.51 45.4575 133.583Z" fill="white"/>
<path opacity="0.5" d="M322.729 40.8562C323.988 40.9292 325.207 40.1332 325.451 39.0784C325.695 38.0237 324.871 37.1094 323.612 37.0364C322.353 36.9635 321.134 37.7594 320.89 38.8142C320.647 39.869 321.47 40.7832 322.729 40.8562Z" fill="white"/>
<path opacity="0.5" d="M205.552 29.893C205.265 29.7603 205.06 29.5386 204.977 29.27C204.893 29.0015 204.937 28.7047 205.1 28.4361C205.126 28.3951 205.146 28.3522 205.16 28.3085C205.198 28.1831 205.188 28.0558 205.13 27.9454C205.072 27.835 204.97 27.7474 204.839 27.6956C204.707 27.6438 204.554 27.6307 204.401 27.658C204.249 27.6854 204.105 27.7519 203.991 27.8476C203.951 27.8814 203.916 27.9187 203.885 27.9586C203.688 28.2123 203.392 28.4086 203.055 28.5103C202.717 28.612 202.361 28.6121 202.053 28.5105C202.006 28.4942 201.956 28.4829 201.905 28.4768C201.756 28.4603 201.599 28.4846 201.457 28.5462C201.315 28.6078 201.195 28.7034 201.116 28.8188C201.037 28.9341 201.002 29.0631 201.016 29.1865C201.031 29.31 201.095 29.4213 201.198 29.5039C201.234 29.533 201.275 29.5579 201.32 29.578C201.605 29.7119 201.807 29.9336 201.888 30.2013C201.97 30.469 201.926 30.7643 201.763 31.0315C201.738 31.0725 201.718 31.1154 201.704 31.1591C201.665 31.2845 201.676 31.4118 201.734 31.5222C201.792 31.6326 201.894 31.7202 202.025 31.772C202.156 31.8238 202.31 31.8369 202.462 31.8096C202.615 31.7822 202.759 31.7157 202.872 31.6201C202.912 31.5862 202.948 31.5489 202.978 31.509C203.175 31.2541 203.472 31.0568 203.81 30.9546C204.149 30.8524 204.506 30.8523 204.814 30.9545C204.861 30.9708 204.911 30.9821 204.963 30.9882C205.111 31.0045 205.267 30.9802 205.409 30.9189C205.55 30.8576 205.67 30.7626 205.749 30.6479C205.829 30.5331 205.864 30.4047 205.85 30.2816C205.836 30.1585 205.774 30.0471 205.672 29.9641C205.637 29.9362 205.596 29.9123 205.552 29.893Z" fill="white"/>
<path opacity="0.5" d="M307.8 151.589C307.513 151.456 307.308 151.234 307.224 150.966C307.141 150.697 307.185 150.4 307.348 150.132C307.373 150.091 307.393 150.048 307.407 150.004C307.446 149.879 307.435 149.751 307.377 149.641C307.319 149.53 307.217 149.443 307.086 149.391C306.955 149.339 306.801 149.326 306.649 149.354C306.496 149.381 306.352 149.447 306.239 149.543C306.199 149.577 306.163 149.614 306.133 149.654C305.936 149.909 305.639 150.106 305.301 150.209C304.962 150.311 304.605 150.311 304.297 150.209C304.25 150.192 304.2 150.181 304.148 150.175C304 150.158 303.843 150.183 303.701 150.244C303.559 150.306 303.439 150.402 303.359 150.517C303.28 150.632 303.245 150.761 303.26 150.885C303.275 151.008 303.338 151.119 303.441 151.202C303.478 151.231 303.519 151.256 303.564 151.276C303.851 151.409 304.056 151.63 304.139 151.899C304.223 152.168 304.179 152.464 304.016 152.733C303.99 152.774 303.97 152.817 303.957 152.861C303.918 152.986 303.929 153.113 303.986 153.224C304.044 153.334 304.146 153.422 304.278 153.473C304.409 153.525 304.562 153.538 304.715 153.511C304.868 153.484 305.012 153.417 305.125 153.322C305.165 153.288 305.201 153.25 305.231 153.211C305.428 152.956 305.724 152.758 306.063 152.656C306.401 152.554 306.759 152.554 307.067 152.656C307.114 152.672 307.164 152.684 307.216 152.69C307.364 152.706 307.521 152.682 307.663 152.62C307.805 152.559 307.925 152.463 308.004 152.348C308.084 152.232 308.119 152.103 308.104 151.98C308.089 151.857 308.026 151.745 307.923 151.663C307.886 151.633 307.845 151.609 307.8 151.589Z" fill="white"/>
<path opacity="0.5" d="M209.327 197.899C210.586 197.972 211.804 197.176 212.048 196.121C212.292 195.067 211.469 194.152 210.21 194.079C208.951 194.006 207.732 194.802 207.488 195.857C207.244 196.912 208.067 197.826 209.327 197.899Z" fill="white"/>
<path opacity="0.5" d="M9.30318 167.53C10.5624 167.603 11.781 166.807 12.0249 165.752C12.2687 164.697 11.4456 163.783 10.1864 163.71C8.92709 163.637 7.70855 164.433 7.46467 165.488C7.22079 166.543 8.04392 167.457 9.30318 167.53Z" fill="white"/>
<path opacity="0.5" d="M224.795 51.821C226.055 51.894 227.273 51.0981 227.517 50.0433C227.761 48.9885 226.938 48.0743 225.679 48.0013C224.419 47.9283 223.201 48.7242 222.957 49.779C222.713 50.8338 223.536 51.7481 224.795 51.821Z" fill="white"/>
<g opacity="0.5">
<path opacity="0.5" d="M34.3366 8.53478L33.4531 8.48047L32.3077 13.7144L33.1912 13.7687L34.3366 8.53478Z" fill="white"/>
<path opacity="0.5" d="M36.567 11.8876L36.8398 10.75L30.0745 10.373L29.8017 11.5106L36.567 11.8876Z" fill="white"/>
</g>
<g opacity="0.5">
<path opacity="0.5" d="M48.8718 60.1754L47.9883 60.1211L46.8429 65.355L47.7264 65.4093L48.8718 60.1754Z" fill="white"/>
<path opacity="0.5" d="M51.1022 63.5282L51.375 62.3906L44.6097 62.0136L44.3369 63.1512L51.1022 63.5282Z" fill="white"/>
</g>
<g opacity="0.5">
<path opacity="0.5" d="M275.466 57.3141L274.582 57.2598L273.437 62.4936L274.32 62.548L275.466 57.3141Z" fill="white"/>
<path opacity="0.5" d="M277.7 60.6669L277.973 59.5293L271.207 59.1523L270.934 60.2899L277.7 60.6669Z" fill="white"/>
</g>
<path opacity="0.5" d="M213.645 126.653C214.904 126.726 216.123 125.93 216.367 124.875C216.611 123.821 215.787 122.906 214.528 122.833C213.269 122.76 212.05 123.556 211.806 124.611C211.563 125.666 212.386 126.58 213.645 126.653Z" fill="white"/>
<path opacity="0.5" d="M237.338 172.292C238.598 172.365 239.816 171.569 240.06 170.514C240.304 169.459 239.481 168.545 238.222 168.472C236.962 168.399 235.744 169.195 235.5 170.25C235.256 171.304 236.079 172.219 237.338 172.292Z" fill="white"/>
<path opacity="0.5" d="M514.61 79.5652C515.869 79.6381 517.088 78.8422 517.332 77.7874C517.575 76.7326 516.752 75.8184 515.493 75.7454C514.234 75.6724 513.015 76.4684 512.771 77.5232C512.527 78.5779 513.351 79.4922 514.61 79.5652Z" fill="white"/>
<path opacity="0.5" d="M397.433 68.6019C397.146 68.4693 396.941 68.2476 396.858 67.979C396.774 67.7105 396.818 67.4137 396.981 67.1451C397.007 67.1041 397.027 67.0612 397.04 67.0175C397.079 66.8921 397.068 66.7648 397.011 66.6544C396.953 66.5439 396.851 66.4564 396.719 66.4046C396.588 66.3528 396.435 66.3396 396.282 66.367C396.129 66.3944 395.986 66.4609 395.872 66.5565C395.832 66.5904 395.796 66.6277 395.766 66.6675C395.569 66.9213 395.273 67.1176 394.935 67.2193C394.598 67.321 394.242 67.3211 393.934 67.2195C393.887 67.2032 393.837 67.1919 393.785 67.1858C393.637 67.1693 393.48 67.1936 393.338 67.2552C393.196 67.3168 393.076 67.4124 392.997 67.5277C392.917 67.6431 392.883 67.7721 392.897 67.8955C392.912 68.0189 392.975 68.1303 393.078 68.2129C393.115 68.242 393.156 68.2669 393.201 68.287C393.486 68.4209 393.688 68.6426 393.769 68.9103C393.851 69.178 393.806 69.4732 393.644 69.7405C393.618 69.7815 393.599 69.8244 393.585 69.8681C393.546 69.9935 393.557 70.1208 393.615 70.2312C393.672 70.3416 393.775 70.4292 393.906 70.481C394.037 70.5328 394.19 70.5459 394.343 70.5186C394.496 70.4912 394.64 70.4247 394.753 70.329C394.793 70.2952 394.829 70.2579 394.859 70.218C395.056 69.9631 395.352 69.7658 395.691 69.6636C396.029 69.5613 396.387 69.5613 396.695 69.6635C396.742 69.6798 396.792 69.6911 396.844 69.6972C396.992 69.7135 397.148 69.6892 397.29 69.6279C397.431 69.5666 397.55 69.4716 397.63 69.3568C397.709 69.2421 397.745 69.1137 397.731 68.9906C397.717 68.8675 397.655 68.7561 397.553 68.673C397.517 68.6452 397.477 68.6213 397.433 68.6019Z" fill="white"/>
<path opacity="0.5" d="M499.682 190.297C499.394 190.165 499.19 189.943 499.106 189.675C499.023 189.406 499.067 189.109 499.23 188.841C499.255 188.8 499.275 188.757 499.289 188.713C499.327 188.588 499.317 188.46 499.259 188.35C499.201 188.239 499.099 188.152 498.968 188.1C498.837 188.048 498.683 188.035 498.531 188.063C498.378 188.09 498.234 188.156 498.12 188.252C498.08 188.286 498.045 188.323 498.015 188.363C497.817 188.618 497.521 188.815 497.183 188.918C496.844 189.02 496.487 189.02 496.179 188.918C496.132 188.901 496.082 188.89 496.03 188.884C495.881 188.867 495.724 188.892 495.582 188.953C495.44 189.015 495.321 189.11 495.241 189.226C495.162 189.341 495.127 189.47 495.142 189.594C495.156 189.717 495.22 189.828 495.323 189.911C495.359 189.94 495.401 189.965 495.446 189.985C495.733 190.118 495.938 190.339 496.021 190.608C496.105 190.877 496.061 191.173 495.898 191.442C495.872 191.483 495.852 191.526 495.838 191.57C495.8 191.695 495.81 191.822 495.868 191.933C495.926 192.043 496.028 192.131 496.16 192.182C496.291 192.234 496.444 192.247 496.597 192.22C496.75 192.193 496.893 192.126 497.007 192.031C497.047 191.997 497.083 191.959 497.113 191.92C497.31 191.665 497.606 191.467 497.945 191.365C498.283 191.263 498.641 191.263 498.949 191.365C498.996 191.381 499.046 191.393 499.098 191.399C499.246 191.415 499.403 191.391 499.545 191.329C499.687 191.268 499.807 191.172 499.886 191.057C499.966 190.941 500 190.812 499.986 190.689C499.971 190.566 499.907 190.454 499.805 190.372C499.768 190.342 499.727 190.318 499.682 190.297Z" fill="#4D8AF0"/>
<path opacity="0.5" d="M401.207 236.608C402.467 236.681 403.685 235.885 403.929 234.83C404.173 233.776 403.35 232.861 402.091 232.788C400.831 232.715 399.613 233.511 399.369 234.566C399.125 235.621 399.948 236.535 401.207 236.608Z" fill="white"/>
<path opacity="0.5" d="M201.184 206.239C202.443 206.312 203.662 205.516 203.906 204.461C204.15 203.406 203.326 202.492 202.067 202.419C200.808 202.346 199.589 203.142 199.346 204.197C199.102 205.252 199.925 206.166 201.184 206.239Z" fill="white"/>
<path opacity="0.5" d="M416.676 90.53C417.935 90.603 419.154 89.8071 419.398 88.7523C419.642 87.6975 418.819 86.7832 417.559 86.7103C416.3 86.6373 415.082 87.4332 414.838 88.488C414.594 89.5428 415.417 90.457 416.676 90.53Z" fill="white"/>
<g opacity="0.5">
<path opacity="0.5" d="M226.217 47.2438L225.334 47.1895L224.189 52.4233L225.072 52.4777L226.217 47.2438Z" fill="white"/>
<path opacity="0.5" d="M228.448 50.5966L228.721 49.459L221.955 49.082L221.683 50.2196L228.448 50.5966Z" fill="white"/>
</g>
<g opacity="0.5">
<path opacity="0.5" d="M240.751 98.8746L239.867 98.8203L238.722 104.054L239.605 104.109L240.751 98.8746Z" fill="white"/>
<path opacity="0.5" d="M242.981 102.227L243.254 101.09L236.489 100.713L236.216 101.85L242.981 102.227Z" fill="white"/>
</g>
<g opacity="0.5">
<path opacity="0.5" d="M467.351 96.0192L466.468 95.9648L465.322 101.199L466.206 101.253L467.351 96.0192Z" fill="white"/>
<path opacity="0.5" d="M469.586 99.372L469.858 98.2344L463.093 97.8574L462.82 98.995L469.586 99.372Z" fill="white"/>
</g>
</g>
<path d="M251.533 136.643H450.035V185.083H442.516V197.753L425.473 185.083H251.533V136.643Z" fill="#0F0F33"/>
<path d="M421.965 143.91H269.58V148.382H421.965V143.91Z" fill="#C91757"/>
<path d="M345.773 152.479H269.58V156.95H345.773V152.479Z" fill="#C91757"/>
<path d="M278.102 176.327C282.808 176.327 286.623 173.491 286.623 169.993C286.623 166.494 282.808 163.658 278.102 163.658C273.395 163.658 269.58 166.494 269.58 169.993C269.58 173.491 273.395 176.327 278.102 176.327Z" fill="#C91757"/>
<g opacity="0.5">
<g clip-path="url(#clip0)">
<path d="M233.379 70.7207H34.877V119.162H42.396V131.831L59.439 119.162H233.379V70.7207Z" fill="#757575"/>
<path d="M210.321 78.7305H57.9355V83.2019H210.321V78.7305Z" fill="#C91757"/>
<path d="M134.128 87.3027H57.9355V91.7742H134.128V87.3027Z" fill="#C91757"/>
<path d="M66.4571 111.15C71.1634 111.15 74.9786 108.314 74.9786 104.815C74.9786 101.317 71.1634 98.4805 66.4571 98.4805C61.7508 98.4805 57.9355 101.317 57.9355 104.815C57.9355 108.314 61.7508 111.15 66.4571 111.15Z" fill="#C91757"/>
</g>
</g>
<defs>
<clipPath id="clip0">
<rect x="34.4082" y="70.416" width="199.125" height="62.0359" fill="white"/>
</clipPath>
</defs>
</svg>
