<svg width="348" height="285" viewBox="0 0 348 285" fill="none" xmlns="http://www.w3.org/2000/svg">
<g opacity="0.3">
<g clip-path="url(#clip0)">
<path d="M79.7809 57.6267L81.2623 179.756L145.275 210.914L143.794 88.7857L79.7809 57.6267Z" fill="#757575"/>
<path d="M60.329 47.8708L12.4969 145.996L77.3982 177.587L75.9168 55.4584L60.329 47.8708Z" fill="#757575"/>
<path d="M348 185.719L218.813 122.836L220.294 244.965L300.168 283.844L348 185.719Z" fill="#757575"/>
<path d="M149.581 88.7859L151.062 210.914L215.075 242.073L213.593 119.945L149.581 88.7859Z" fill="#757575"/>
<path d="M215.176 78.0906C229.558 78.0906 241.217 66.4402 241.217 52.0687C241.217 37.6973 229.558 26.0469 215.176 26.0469C200.794 26.0469 189.135 37.6973 189.135 52.0687C189.135 66.4402 200.794 78.0906 215.176 78.0906Z" fill="#C91757"/>
<path d="M186.846 24.6143C192.846 30.7642 202.062 31.509 202.062 31.509C202.062 31.509 201.551 22.283 195.551 16.1332C189.552 9.98339 180.335 9.23853 180.335 9.23853C180.335 9.23853 180.846 18.4645 186.846 24.6143Z" fill="#FA2C5A"/>
<path d="M188.858 21.4534C197.157 23.69 202.301 31.3683 202.301 31.3683C202.301 31.3683 193.99 35.4203 185.692 33.1836C177.394 30.947 172.25 23.2687 172.25 23.2687C172.25 23.2687 180.56 19.2167 188.858 21.4534Z" fill="#C91757"/>
<path d="M197.004 15.5899C197.059 24.1784 203.183 31.102 203.183 31.102C203.183 31.102 209.217 24.1007 209.162 15.5121C209.107 6.92352 202.984 0 202.984 0C202.984 0 196.949 7.0013 197.004 15.5899Z" fill="#FA2C5A"/>
<path d="M200.648 14.7072C205.075 22.0692 203.452 31.166 203.452 31.166C203.452 31.166 194.653 28.3266 190.226 20.9646C185.8 13.6027 187.422 4.50586 187.422 4.50586C187.422 4.50586 196.221 7.34522 200.648 14.7072Z" fill="#C91757"/>
<path d="M212.82 63.4434C220.21 63.4434 226.202 57.4564 226.202 50.0711C226.202 42.6857 220.21 36.6987 212.82 36.6987C205.429 36.6987 199.438 42.6857 199.438 50.0711C199.438 57.4564 205.429 63.4434 212.82 63.4434Z" fill="#D8D8D8"/>
<path d="M206.557 58.5455C208.954 58.5455 210.897 56.6038 210.897 54.2086C210.897 51.8133 208.954 49.8716 206.557 49.8716C204.16 49.8716 202.217 51.8133 202.217 54.2086C202.217 56.6038 204.16 58.5455 206.557 58.5455Z" fill="#FA2C5A"/>
<path d="M75.2281 282.956C89.6099 282.956 101.269 271.305 101.269 256.934C101.269 242.562 89.6099 230.912 75.2281 230.912C60.8464 230.912 49.1876 242.562 49.1876 256.934C49.1876 271.305 60.8464 282.956 75.2281 282.956Z" fill="#C91757"/>
<path d="M63.8584 219.17C66.1028 227.461 73.7904 232.595 73.7904 232.595C73.7904 232.595 77.8392 224.288 75.5947 215.997C73.3503 207.707 65.6627 202.572 65.6627 202.572C65.6627 202.572 61.614 210.879 63.8584 219.17Z" fill="#FA2C5A"/>
<path d="M67.1564 217.389C73.3151 223.379 74.0674 232.589 74.0674 232.589C74.0674 232.589 64.8344 232.085 58.6757 226.094C52.517 220.103 51.7648 210.894 51.7648 210.894C51.7648 210.894 60.9977 211.398 67.1564 217.389Z" fill="#C91757"/>
<path d="M77.1285 216.23C72.9921 223.759 74.9677 232.785 74.9677 232.785C74.9677 232.785 83.6497 229.606 87.7861 222.077C91.9225 214.548 89.947 205.521 89.947 205.521C89.947 205.521 81.265 208.701 77.1285 216.23Z" fill="#FA2C5A"/>
<path d="M80.7412 217.232C81.0209 225.816 75.1718 232.972 75.1718 232.972C75.1718 232.972 68.8692 226.211 68.5894 217.627C68.3097 209.043 74.1588 201.886 74.1588 201.886C74.1588 201.886 80.4614 208.647 80.7412 217.232Z" fill="#C91757"/>
<path d="M74.1431 267.415C81.5337 267.415 87.525 261.428 87.525 254.043C87.525 246.657 81.5337 240.67 74.1431 240.67C66.7525 240.67 60.7612 246.657 60.7612 254.043C60.7612 261.428 66.7525 267.415 74.1431 267.415Z" fill="#D8D8D8"/>
<path d="M78.4832 251.874C80.8802 251.874 82.8233 249.932 82.8233 247.537C82.8233 245.142 80.8802 243.2 78.4832 243.2C76.0862 243.2 74.1431 245.142 74.1431 247.537C74.1431 249.932 76.0862 251.874 78.4832 251.874Z" fill="#FA2C5A"/>
<path d="M139.244 282.594H3.6167V283.317H139.244V282.594Z" fill="#C91757"/>
<path d="M339.25 284.04H203.622V284.763H339.25V284.04Z" fill="#C91757"/>
<path d="M34.6804 283.122L34.0376 282.79C42.3857 266.662 37.9217 245.718 32.7071 230.988C29.1662 221.087 24.6499 211.562 19.2247 202.554L19.8361 202.167C25.2895 211.222 29.8293 220.795 33.3888 230.746C38.6514 245.611 43.1469 266.765 34.6804 283.122Z" fill="#C91757"/>
<path d="M40.8702 202.296L36.1777 227.958L36.889 228.088L41.5815 202.426L40.8702 202.296Z" fill="#C91757"/>
<path d="M9.66846 224.16L9.13873 224.653L33.3708 250.675L33.9005 250.182L9.66846 224.16Z" fill="#C91757"/>
<path d="M53.2317 252.745L40.9405 269.735L41.5268 270.159L53.818 253.168L53.2317 252.745Z" fill="#C91757"/>
<path d="M43.0392 195.493C45.0366 195.493 46.6559 193.875 46.6559 191.879C46.6559 189.883 45.0366 188.265 43.0392 188.265C41.0417 188.265 39.4224 189.883 39.4224 191.879C39.4224 193.875 41.0417 195.493 43.0392 195.493Z" fill="#C91757"/>
<path d="M3.61674 223.322C5.61421 223.322 7.23348 221.704 7.23348 219.708C7.23348 217.712 5.61421 216.094 3.61674 216.094C1.61927 216.094 0 217.712 0 219.708C0 221.704 1.61927 223.322 3.61674 223.322Z" fill="#FA2C5A"/>
<path d="M19.5304 226.937C21.5278 226.937 23.1471 225.318 23.1471 223.322C23.1471 221.326 21.5278 219.708 19.5304 219.708C17.5329 219.708 15.9136 221.326 15.9136 223.322C15.9136 225.318 17.5329 226.937 19.5304 226.937Z" fill="#FA2C5A"/>
<path d="M12.2969 241.032C14.2944 241.032 15.9137 239.414 15.9137 237.418C15.9137 235.422 14.2944 233.803 12.2969 233.803C10.2994 233.803 8.68018 235.422 8.68018 237.418C8.68018 239.414 10.2994 241.032 12.2969 241.032Z" fill="#C91757"/>
<path d="M57.5061 250.067C59.5036 250.067 61.1229 248.449 61.1229 246.453C61.1229 244.457 59.5036 242.839 57.5061 242.839C55.5087 242.839 53.8894 244.457 53.8894 246.453C53.8894 248.449 55.5087 250.067 57.5061 250.067Z" fill="#FA2C5A"/>
<path d="M45.5709 254.043C47.5684 254.043 49.1876 252.425 49.1876 250.429C49.1876 248.433 47.5684 246.814 45.5709 246.814C43.5734 246.814 41.9542 248.433 41.9542 250.429C41.9542 252.425 43.5734 254.043 45.5709 254.043Z" fill="#FA2C5A"/>
<path d="M53.8894 265.608C55.8869 265.608 57.5061 263.99 57.5061 261.994C57.5061 259.998 55.8869 258.38 53.8894 258.38C51.8919 258.38 50.2726 259.998 50.2726 261.994C50.2726 263.99 51.8919 265.608 53.8894 265.608Z" fill="#FA2C5A"/>
<path d="M15.9136 199.831C17.9111 199.831 19.5303 198.212 19.5303 196.216C19.5303 194.22 17.9111 192.602 15.9136 192.602C13.9161 192.602 12.2969 194.22 12.2969 196.216C12.2969 198.212 13.9161 199.831 15.9136 199.831Z" fill="#FA2C5A"/>
<path d="M248.324 64.78H73.9972V169.229H248.324V64.78Z" fill="#FA2C5A"/>
<path d="M80.869 70.5626C81.8677 70.5626 82.6773 69.7536 82.6773 68.7556C82.6773 67.7575 81.8677 66.9485 80.869 66.9485C79.8702 66.9485 79.0606 67.7575 79.0606 68.7556C79.0606 69.7536 79.8702 70.5626 80.869 70.5626Z" fill="#C91757"/>
<path d="M87.3791 70.5626C88.3778 70.5626 89.1875 69.7536 89.1875 68.7556C89.1875 67.7575 88.3778 66.9485 87.3791 66.9485C86.3804 66.9485 85.5707 67.7575 85.5707 68.7556C85.5707 69.7536 86.3804 70.5626 87.3791 70.5626Z" fill="#C91757"/>
<path d="M93.8892 70.5626C94.888 70.5626 95.6976 69.7536 95.6976 68.7556C95.6976 67.7575 94.888 66.9485 93.8892 66.9485C92.8905 66.9485 92.0809 67.7575 92.0809 68.7556C92.0809 69.7536 92.8905 70.5626 93.8892 70.5626Z" fill="#C91757"/>
<path d="M248.324 72.7969H74.1431V73.5197H248.324V72.7969Z" fill="#C91757"/>
<path d="M175.628 94.0544V126.582H128.31L119.568 137.063L120.566 126.582H116.313V94.0544H175.628Z" fill="#000D22" fill-opacity="0.7"/>
<path opacity="0.1" d="M175.628 105.258H154.289V126.582H175.628V105.258Z" fill="black"/>
<path d="M158.991 109.957H218.305V142.484H214.051L215.05 152.965L206.31 142.484H158.991V109.957Z" fill="#000D22" fill-opacity="0.7"/>
<path opacity="0.1" d="M119.93 142.308C127.121 142.308 132.95 141.739 132.95 141.038C132.95 140.337 127.121 139.769 119.93 139.769C112.739 139.769 106.909 140.337 106.909 141.038C106.909 141.739 112.739 142.308 119.93 142.308Z" fill="black"/>
<path opacity="0.1" d="M215.05 159.471C223.24 159.471 229.879 158.823 229.879 158.025C229.879 157.227 223.24 156.579 215.05 156.579C206.86 156.579 200.221 157.227 200.221 158.025C200.221 158.823 206.86 159.471 215.05 159.471Z" fill="black"/>
</g>
</g>
<defs>
<clipPath id="clip0">
<rect width="348" height="285" fill="white"/>
</clipPath>
</defs>
</svg>
