<svg width="22" height="20" viewBox="0 0 22 20" fill="none" xmlns="http://www.w3.org/2000/svg">
<path d="M16.5 8.00644V2.0019C16.5 1.5019 16.1339 0.508111 15.1339 0.508111C15.1339 0.508111 3.5 0.514874 2.5 0.507407C1.5 0.499939 1 1 1.00024 2.00159C1.00049 3.00318 1 18.0063 1 18.0063C1.11069 19.3188 1.92096 19.4823 2.5 19.5H11.5M4 4.5H14M4 8H14M4 11.5H10M4 15.5H8M12 15C12 12.5 14 10.5 16.5 10.5C19 10.5 21 12.5 21 15C21 17.5 19 19.5 16.5 19.5C14 19.5 12 17.5 12 15Z" stroke="white" stroke-linecap="round" stroke-linejoin="round"/>
<path d="M16.5005 13.4998C16.1016 13.1523 15.8798 13.0194 15.5005 12.9998C15.3035 12.977 15.197 12.9763 15.0005 12.9998C14.5002 13.0598 14.1856 13.2988 14.0004 13.5C13.8153 13.7012 13.5653 14.6085 14.0005 14.9998C14.7644 15.9904 16.5713 17.3735 16.5005 17.4998C16.4296 17.6261 19.0523 15.1589 19.0004 15C19.3751 14.4273 19.306 14.0899 19.0005 13.4998C18.665 13.1955 18.4614 13.0512 18.0005 12.9998C17.7769 12.9848 17.6618 12.9782 17.5005 12.9998C17.0148 13.0674 16.7951 13.1759 16.5005 13.4998Z" fill="white"/>
</svg>
