<svg width="375" height="229" fill="none" xmlns="http://www.w3.org/2000/svg">
<path d="M37.5291 13.9972H339.01V203.499H37.5291V13.9972Z" fill="url(#paint0_linear)"/>
<path d="M64.8802 228.264C21.0804 228.074 -4.23686 227.137 -11.2572 224.675C-12 224.226 -12 223.55 -12 222.88H388C387.977 223.561 388 224.157 386.514 224.675C379.47 227.132 354.88 228.074 311.12 228.264H64.8802Z" fill="#828282"/>
<mask id="path-3-inside-1" fill="white">
<path fill-rule="evenodd" clip-rule="evenodd" d="M34.8377 0C30.0804 0 26.2239 3.8565 26.2239 8.61373V217.497C26.2239 218.686 27.1881 219.65 28.3774 219.65H348.162C349.351 219.65 350.315 218.686 350.315 217.497V8.61373C350.315 3.8565 346.459 0 341.702 0H34.8377ZM339.166 14.8399H38.1176V203.323H339.166V14.8399Z"/>
</mask>
<path fill-rule="evenodd" clip-rule="evenodd" d="M34.8377 0C30.0804 0 26.2239 3.8565 26.2239 8.61373V217.497C26.2239 218.686 27.1881 219.65 28.3774 219.65H348.162C349.351 219.65 350.315 218.686 350.315 217.497V8.61373C350.315 3.8565 346.459 0 341.702 0H34.8377ZM339.166 14.8399H38.1176V203.323H339.166V14.8399Z" fill="black"/>
<path d="M38.1176 14.8399V14.3015H37.5792V14.8399H38.1176ZM339.166 14.8399H339.704V14.3015H339.166V14.8399ZM38.1176 203.323H37.5792V203.862H38.1176V203.323ZM339.166 203.323V203.862H339.704V203.323H339.166ZM26.7623 8.61373C26.7623 4.15382 30.3778 0.538358 34.8377 0.538358V-0.538358C29.7831 -0.538358 25.6856 3.55917 25.6856 8.61373H26.7623ZM26.7623 217.497V8.61373H25.6856V217.497H26.7623ZM28.3774 219.112C27.4854 219.112 26.7623 218.389 26.7623 217.497H25.6856C25.6856 218.983 26.8907 220.188 28.3774 220.188V219.112ZM348.162 219.112H28.3774V220.188H348.162V219.112ZM349.777 217.497C349.777 218.389 349.054 219.112 348.162 219.112V220.188C349.649 220.188 350.854 218.983 350.854 217.497H349.777ZM349.777 8.61373V217.497H350.854V8.61373H349.777ZM341.702 0.538358C346.162 0.538358 349.777 4.15383 349.777 8.61373H350.854C350.854 3.55917 346.756 -0.538358 341.702 -0.538358V0.538358ZM34.8377 0.538358H341.702V-0.538358H34.8377V0.538358ZM38.1176 15.3782H339.166V14.3015H38.1176V15.3782ZM38.6559 203.323V14.8399H37.5792V203.323H38.6559ZM339.166 202.785H38.1176V203.862H339.166V202.785ZM338.628 14.8399V203.323H339.704V14.8399H338.628Z" fill="#828282" mask="url(#path-3-inside-1)"/>
<rect x="-12" y="219.112" width="400" height="3.76851" fill="#C4C4C4"/>
<path d="M150.046 219.112H226.493C226.493 220.598 225.288 221.803 223.801 221.803H152.738C151.251 221.803 150.046 220.598 150.046 219.112Z" fill="#828282"/>
<defs>
<linearGradient id="paint0_linear" x1="188.269" y1="13.9972" x2="188.269" y2="203.499" gradientUnits="userSpaceOnUse">
<stop stop-color="#7C8083"/>
<stop offset="1" stop-color="#A9ADB0"/>
</linearGradient>
</defs>
</svg>
