<svg width="601" height="570" viewBox="0 0 601 570" fill="none" xmlns="http://www.w3.org/2000/svg">
<rect width="601" height="570" fill="#F9F9F9"/>
<g opacity="0.2">
<path opacity="0.5" d="M66.7641 211.509C68.0234 211.582 69.2419 210.786 69.4858 209.731C69.7297 208.676 68.9066 207.762 67.6473 207.689C66.388 207.616 65.1695 208.412 64.9256 209.467C64.6817 210.521 65.5049 211.436 66.7641 211.509Z" fill="white"/>
<path opacity="0.5" d="M90.4575 257.147C91.7168 257.22 92.9353 256.424 93.1792 255.369C93.4231 254.315 92.5999 253.4 91.3407 253.327C90.0814 253.254 88.8628 254.05 88.619 255.105C88.3751 256.16 89.1982 257.074 90.4575 257.147Z" fill="white"/>
<path opacity="0.5" d="M367.729 164.421C368.988 164.494 370.207 163.698 370.451 162.643C370.695 161.588 369.871 160.674 368.612 160.601C367.353 160.528 366.134 161.324 365.89 162.379C365.647 163.433 366.47 164.348 367.729 164.421Z" fill="white"/>
<path opacity="0.5" d="M250.552 153.457C250.265 153.325 250.06 153.103 249.977 152.834C249.893 152.566 249.937 152.269 250.1 152.001C250.126 151.96 250.146 151.917 250.16 151.873C250.198 151.748 250.188 151.62 250.13 151.51C250.072 151.399 249.97 151.312 249.839 151.26C249.707 151.208 249.554 151.195 249.401 151.222C249.249 151.25 249.105 151.316 248.991 151.412C248.951 151.446 248.916 151.483 248.885 151.523C248.688 151.777 248.392 151.973 248.055 152.075C247.717 152.176 247.361 152.177 247.053 152.075C247.006 152.059 246.956 152.047 246.905 152.041C246.756 152.025 246.599 152.049 246.457 152.111C246.315 152.172 246.195 152.268 246.116 152.383C246.037 152.499 246.002 152.628 246.016 152.751C246.031 152.874 246.095 152.986 246.198 153.068C246.234 153.097 246.275 153.122 246.32 153.142C246.605 153.276 246.807 153.498 246.888 153.766C246.97 154.033 246.926 154.329 246.763 154.596C246.738 154.637 246.718 154.68 246.704 154.724C246.665 154.849 246.676 154.976 246.734 155.087C246.792 155.197 246.894 155.285 247.025 155.336C247.156 155.388 247.31 155.401 247.462 155.374C247.615 155.347 247.759 155.28 247.872 155.185C247.912 155.151 247.948 155.113 247.978 155.073C248.175 154.819 248.472 154.621 248.81 154.519C249.149 154.417 249.506 154.417 249.814 154.519C249.861 154.535 249.911 154.547 249.963 154.553C250.111 154.569 250.267 154.545 250.409 154.483C250.55 154.422 250.67 154.327 250.749 154.212C250.829 154.098 250.864 153.969 250.85 153.846C250.836 153.723 250.774 153.612 250.672 153.529C250.637 153.501 250.596 153.477 250.552 153.457Z" fill="white"/>
<path opacity="0.5" d="M352.8 275.153C352.513 275.02 352.308 274.799 352.224 274.53C352.141 274.261 352.185 273.965 352.348 273.696C352.373 273.655 352.393 273.612 352.407 273.568C352.446 273.443 352.435 273.316 352.377 273.205C352.319 273.095 352.217 273.007 352.086 272.956C351.955 272.904 351.801 272.891 351.649 272.918C351.496 272.945 351.352 273.012 351.239 273.108C351.199 273.141 351.163 273.179 351.133 273.219C350.936 273.473 350.639 273.671 350.301 273.773C349.962 273.875 349.605 273.875 349.297 273.773C349.25 273.757 349.2 273.745 349.148 273.739C349 273.723 348.843 273.747 348.701 273.809C348.559 273.87 348.439 273.966 348.359 274.081C348.28 274.197 348.245 274.326 348.26 274.449C348.275 274.573 348.338 274.684 348.441 274.766C348.478 274.796 348.519 274.82 348.564 274.841C348.851 274.973 349.056 275.195 349.139 275.463C349.223 275.732 349.179 276.029 349.016 276.297C348.99 276.338 348.97 276.381 348.957 276.425C348.918 276.55 348.929 276.678 348.986 276.788C349.044 276.899 349.146 276.986 349.278 277.038C349.409 277.09 349.562 277.103 349.715 277.076C349.868 277.048 350.012 276.982 350.125 276.886C350.165 276.852 350.201 276.815 350.231 276.775C350.428 276.52 350.724 276.323 351.063 276.221C351.401 276.118 351.759 276.118 352.067 276.22C352.114 276.237 352.164 276.248 352.216 276.254C352.364 276.271 352.521 276.246 352.663 276.185C352.805 276.123 352.925 276.028 353.004 275.912C353.084 275.797 353.119 275.668 353.104 275.544C353.089 275.421 353.026 275.31 352.923 275.227C352.886 275.198 352.845 275.173 352.8 275.153Z" fill="white"/>
<path opacity="0.5" d="M254.327 321.464C255.586 321.537 256.804 320.741 257.048 319.686C257.292 318.631 256.469 317.717 255.21 317.644C253.951 317.571 252.732 318.367 252.488 319.422C252.244 320.476 253.067 321.391 254.327 321.464Z" fill="white"/>
<path opacity="0.5" d="M54.3032 291.094C55.5624 291.167 56.781 290.372 57.0249 289.317C57.2687 288.262 56.4456 287.348 55.1864 287.275C53.9271 287.202 52.7085 287.998 52.4647 289.052C52.2208 290.107 53.0439 291.021 54.3032 291.094Z" fill="white"/>
<path opacity="0.5" d="M269.795 175.385C271.055 175.458 272.273 174.663 272.517 173.608C272.761 172.553 271.938 171.639 270.679 171.566C269.419 171.493 268.201 172.289 267.957 173.343C267.713 174.398 268.536 175.313 269.795 175.385Z" fill="white"/>
<g opacity="0.5">
<path opacity="0.5" d="M79.3366 132.099L78.4531 132.045L77.3077 137.279L78.1912 137.333L79.3366 132.099Z" fill="white"/>
<path opacity="0.5" d="M81.567 135.452L81.8398 134.314L75.0745 133.937L74.8017 135.075L81.567 135.452Z" fill="white"/>
</g>
<g opacity="0.5">
<path opacity="0.5" d="M93.8718 183.74L92.9883 183.686L91.8429 188.919L92.7264 188.974L93.8718 183.74Z" fill="white"/>
<path opacity="0.5" d="M96.1022 187.093L96.375 185.955L89.6097 185.578L89.3369 186.716L96.1022 187.093Z" fill="white"/>
</g>
<g opacity="0.5">
<path opacity="0.5" d="M320.466 180.879L319.582 180.824L318.437 186.058L319.32 186.112L320.466 180.879Z" fill="white"/>
<path opacity="0.5" d="M322.7 184.231L322.973 183.094L316.207 182.717L315.934 183.854L322.7 184.231Z" fill="white"/>
</g>
<path opacity="0.5" d="M258.645 250.218C259.904 250.29 261.123 249.495 261.367 248.44C261.611 247.385 260.787 246.471 259.528 246.398C258.269 246.325 257.05 247.121 256.806 248.175C256.563 249.23 257.386 250.145 258.645 250.218Z" fill="white"/>
<path opacity="0.5" d="M282.338 295.856C283.598 295.929 284.816 295.133 285.06 294.078C285.304 293.024 284.481 292.109 283.222 292.036C281.962 291.963 280.744 292.759 280.5 293.814C280.256 294.869 281.079 295.783 282.338 295.856Z" fill="white"/>
<path opacity="0.5" d="M559.61 203.13C560.869 203.203 562.088 202.407 562.332 201.352C562.575 200.297 561.752 199.383 560.493 199.31C559.234 199.237 558.015 200.033 557.771 201.088C557.527 202.142 558.351 203.057 559.61 203.13Z" fill="white"/>
<path opacity="0.5" d="M442.433 192.166C442.146 192.034 441.941 191.812 441.858 191.543C441.774 191.275 441.818 190.978 441.981 190.71C442.007 190.669 442.027 190.626 442.04 190.582C442.079 190.457 442.068 190.329 442.011 190.219C441.953 190.108 441.851 190.021 441.719 189.969C441.588 189.917 441.435 189.904 441.282 189.931C441.129 189.959 440.986 190.025 440.872 190.121C440.832 190.155 440.796 190.192 440.766 190.232C440.569 190.486 440.273 190.682 439.935 190.784C439.598 190.885 439.242 190.886 438.934 190.784C438.887 190.768 438.837 190.756 438.785 190.75C438.637 190.734 438.48 190.758 438.338 190.82C438.196 190.881 438.076 190.977 437.997 191.092C437.917 191.208 437.883 191.337 437.897 191.46C437.912 191.583 437.975 191.695 438.078 191.777C438.115 191.806 438.156 191.831 438.201 191.851C438.486 191.985 438.688 192.207 438.769 192.475C438.851 192.742 438.806 193.038 438.644 193.305C438.618 193.346 438.599 193.389 438.585 193.433C438.546 193.558 438.557 193.685 438.615 193.796C438.672 193.906 438.775 193.994 438.906 194.045C439.037 194.097 439.19 194.11 439.343 194.083C439.496 194.056 439.64 193.989 439.753 193.893C439.793 193.86 439.829 193.822 439.859 193.782C440.056 193.528 440.352 193.33 440.691 193.228C441.029 193.126 441.387 193.126 441.695 193.228C441.742 193.244 441.792 193.256 441.844 193.262C441.992 193.278 442.148 193.254 442.29 193.192C442.431 193.131 442.55 193.036 442.63 192.921C442.709 192.807 442.745 192.678 442.731 192.555C442.717 192.432 442.655 192.321 442.553 192.237C442.517 192.21 442.477 192.186 442.433 192.166Z" fill="white"/>
<path opacity="0.5" d="M544.681 313.862C544.393 313.729 544.189 313.508 544.105 313.239C544.022 312.97 544.066 312.674 544.229 312.405C544.254 312.364 544.274 312.321 544.288 312.277C544.326 312.152 544.316 312.025 544.258 311.914C544.2 311.804 544.098 311.716 543.967 311.665C543.836 311.613 543.682 311.6 543.53 311.627C543.377 311.654 543.233 311.721 543.119 311.817C543.079 311.85 543.044 311.888 543.014 311.928C542.816 312.182 542.52 312.38 542.182 312.482C541.843 312.584 541.486 312.584 541.178 312.482C541.131 312.466 541.081 312.454 541.029 312.448C540.88 312.432 540.723 312.456 540.581 312.518C540.439 312.579 540.32 312.675 540.24 312.79C540.161 312.906 540.126 313.035 540.141 313.158C540.155 313.282 540.219 313.393 540.322 313.475C540.358 313.505 540.4 313.529 540.445 313.55C540.732 313.682 540.937 313.904 541.02 314.172C541.104 314.441 541.06 314.738 540.897 315.006C540.871 315.047 540.851 315.09 540.837 315.134C540.799 315.259 540.809 315.387 540.867 315.497C540.925 315.608 541.027 315.695 541.159 315.747C541.29 315.799 541.443 315.812 541.596 315.785C541.749 315.757 541.892 315.691 542.006 315.595C542.046 315.561 542.082 315.524 542.112 315.484C542.309 315.229 542.605 315.032 542.944 314.929C543.282 314.827 543.64 314.827 543.948 314.929C543.995 314.946 544.045 314.957 544.097 314.963C544.245 314.98 544.402 314.955 544.544 314.894C544.686 314.832 544.806 314.737 544.885 314.621C544.965 314.506 544.999 314.377 544.985 314.253C544.97 314.13 544.907 314.019 544.804 313.936C544.767 313.907 544.726 313.882 544.681 313.862Z" fill="#4D8AF0"/>
<path opacity="0.5" d="M446.207 360.173C447.467 360.246 448.685 359.45 448.929 358.395C449.173 357.34 448.35 356.426 447.091 356.353C445.831 356.28 444.613 357.076 444.369 358.131C444.125 359.185 444.948 360.1 446.207 360.173Z" fill="white"/>
<path opacity="0.5" d="M246.184 329.803C247.443 329.876 248.662 329.08 248.906 328.026C249.15 326.971 248.326 326.057 247.067 325.984C245.808 325.911 244.589 326.707 244.346 327.761C244.102 328.816 244.925 329.73 246.184 329.803Z" fill="white"/>
<path opacity="0.5" d="M461.676 214.094C462.935 214.167 464.154 213.372 464.398 212.317C464.642 211.262 463.819 210.348 462.559 210.275C461.3 210.202 460.082 210.998 459.838 212.052C459.594 213.107 460.417 214.021 461.676 214.094Z" fill="white"/>
<g opacity="0.5">
<path opacity="0.5" d="M271.217 170.808L270.334 170.754L269.189 175.988L270.072 176.042L271.217 170.808Z" fill="white"/>
<path opacity="0.5" d="M273.448 174.161L273.721 173.023L266.955 172.646L266.683 173.784L273.448 174.161Z" fill="white"/>
</g>
<g opacity="0.5">
<path opacity="0.5" d="M285.751 222.439L284.867 222.385L283.722 227.619L284.605 227.673L285.751 222.439Z" fill="white"/>
<path opacity="0.5" d="M287.981 225.792L288.254 224.654L281.489 224.277L281.216 225.415L287.981 225.792Z" fill="white"/>
</g>
<g opacity="0.5">
<path opacity="0.5" d="M512.352 219.584L511.469 219.529L510.323 224.763L511.207 224.817L512.352 219.584Z" fill="white"/>
<path opacity="0.5" d="M514.587 222.936L514.859 221.799L508.094 221.422L507.821 222.559L514.587 222.936Z" fill="white"/>
</g>
</g>
<path d="M296.533 260.207H495.035V308.648H487.516V321.317L470.473 308.648H296.533V260.207Z" fill="#0F0F33"/>
<path d="M466.965 267.475H314.58V271.946H466.965V267.475Z" fill="#C91757"/>
<path d="M390.773 276.043H314.58V280.514H390.773V276.043Z" fill="#C91757"/>
<path d="M323.102 299.892C327.808 299.892 331.623 297.056 331.623 293.557C331.623 290.059 327.808 287.223 323.102 287.223C318.395 287.223 314.58 290.059 314.58 293.557C314.58 297.056 318.395 299.892 323.102 299.892Z" fill="#C91757"/>
<g opacity="0.5">
<g clip-path="url(#clip0)">
<path d="M278.379 194.285H79.877V242.726H87.396V255.395L104.439 242.726H278.379V194.285Z" fill="#757575"/>
<path d="M255.321 202.295H102.936V206.766H255.321V202.295Z" fill="#C91757"/>
<path d="M179.128 210.867H102.936V215.339H179.128V210.867Z" fill="#C91757"/>
<path d="M111.457 234.714C116.163 234.714 119.979 231.878 119.979 228.379C119.979 224.881 116.163 222.045 111.457 222.045C106.751 222.045 102.936 224.881 102.936 228.379C102.936 231.878 106.751 234.714 111.457 234.714Z" fill="#C91757"/>
</g>
</g>
<path d="M157.128 402.804V420H155.964C155.78 420 155.624 419.968 155.496 419.904C155.376 419.84 155.256 419.732 155.136 419.58L145.188 406.62C145.204 406.82 145.216 407.016 145.224 407.208C145.232 407.4 145.236 407.58 145.236 407.748V420H143.196V402.804H144.396C144.5 402.804 144.588 402.812 144.66 402.828C144.732 402.836 144.796 402.856 144.852 402.888C144.908 402.912 144.964 402.952 145.02 403.008C145.076 403.056 145.136 403.12 145.2 403.2L155.148 416.148C155.132 415.94 155.116 415.74 155.1 415.548C155.092 415.348 155.088 415.16 155.088 414.984V402.804H157.128ZM165.769 407.652C166.657 407.652 167.457 407.8 168.169 408.096C168.881 408.392 169.489 408.812 169.993 409.356C170.497 409.9 170.881 410.56 171.145 411.336C171.417 412.104 171.553 412.964 171.553 413.916C171.553 414.876 171.417 415.74 171.145 416.508C170.881 417.276 170.497 417.932 169.993 418.476C169.489 419.02 168.881 419.44 168.169 419.736C167.457 420.024 166.657 420.168 165.769 420.168C164.873 420.168 164.065 420.024 163.345 419.736C162.633 419.44 162.025 419.02 161.521 418.476C161.017 417.932 160.629 417.276 160.357 416.508C160.093 415.74 159.961 414.876 159.961 413.916C159.961 412.964 160.093 412.104 160.357 411.336C160.629 410.56 161.017 409.9 161.521 409.356C162.025 408.812 162.633 408.392 163.345 408.096C164.065 407.8 164.873 407.652 165.769 407.652ZM165.769 418.5C166.969 418.5 167.865 418.1 168.457 417.3C169.049 416.492 169.345 415.368 169.345 413.928C169.345 412.48 169.049 411.352 168.457 410.544C167.865 409.736 166.969 409.332 165.769 409.332C165.161 409.332 164.629 409.436 164.173 409.644C163.725 409.852 163.349 410.152 163.045 410.544C162.749 410.936 162.525 411.42 162.373 411.996C162.229 412.564 162.157 413.208 162.157 413.928C162.157 415.368 162.453 416.492 163.045 417.3C163.645 418.1 164.553 418.5 165.769 418.5ZM189.242 413.616L186.542 406.62C186.462 406.412 186.378 406.172 186.29 405.9C186.202 405.62 186.118 405.324 186.038 405.012C185.87 405.66 185.698 406.2 185.522 406.632L182.822 413.616H189.242ZM194.09 420H192.29C192.082 420 191.914 419.948 191.786 419.844C191.658 419.74 191.562 419.608 191.498 419.448L189.89 415.296H182.174L180.566 419.448C180.518 419.592 180.426 419.72 180.29 419.832C180.154 419.944 179.986 420 179.786 420H177.986L184.862 402.804H187.214L194.09 420ZM203.98 410.004C203.916 410.092 203.852 410.16 203.788 410.208C203.724 410.256 203.636 410.28 203.524 410.28C203.404 410.28 203.272 410.232 203.128 410.136C202.984 410.032 202.804 409.92 202.588 409.8C202.38 409.68 202.12 409.572 201.808 409.476C201.504 409.372 201.128 409.32 200.68 409.32C200.08 409.32 199.552 409.428 199.096 409.644C198.64 409.852 198.256 410.156 197.944 410.556C197.64 410.956 197.408 411.44 197.248 412.008C197.096 412.576 197.02 413.212 197.02 413.916C197.02 414.652 197.104 415.308 197.272 415.884C197.44 416.452 197.676 416.932 197.98 417.324C198.292 417.708 198.664 418.004 199.096 418.212C199.536 418.412 200.028 418.512 200.572 418.512C201.092 418.512 201.52 418.452 201.856 418.332C202.192 418.204 202.468 418.064 202.684 417.912C202.908 417.76 203.092 417.624 203.236 417.504C203.388 417.376 203.536 417.312 203.68 417.312C203.856 417.312 203.992 417.38 204.088 417.516L204.688 418.296C204.424 418.624 204.124 418.904 203.788 419.136C203.452 419.368 203.088 419.564 202.696 419.724C202.312 419.876 201.908 419.988 201.484 420.06C201.06 420.132 200.628 420.168 200.188 420.168C199.428 420.168 198.72 420.028 198.064 419.748C197.416 419.468 196.852 419.064 196.372 418.536C195.892 418 195.516 417.344 195.244 416.568C194.972 415.792 194.836 414.908 194.836 413.916C194.836 413.012 194.96 412.176 195.208 411.408C195.464 410.64 195.832 409.98 196.312 409.428C196.8 408.868 197.396 408.432 198.1 408.12C198.812 407.808 199.628 407.652 200.548 407.652C201.404 407.652 202.156 407.792 202.804 408.072C203.46 408.344 204.04 408.732 204.544 409.236L203.98 410.004ZM218.261 420H216.125V409.632H209.861V416.928C209.861 417.44 209.985 417.82 210.233 418.068C210.481 418.316 210.801 418.44 211.193 418.44C211.417 418.44 211.609 418.412 211.769 418.356C211.937 418.292 212.081 418.224 212.201 418.152C212.321 418.08 212.421 418.016 212.501 417.96C212.589 417.896 212.665 417.864 212.729 417.864C212.841 417.864 212.941 417.932 213.029 418.068L213.653 419.088C213.285 419.432 212.841 419.704 212.321 419.904C211.801 420.096 211.265 420.192 210.713 420.192C209.753 420.192 209.013 419.924 208.493 419.388C207.981 418.852 207.725 418.08 207.725 417.072V409.632H206.261C206.133 409.632 206.025 409.596 205.937 409.524C205.849 409.444 205.805 409.324 205.805 409.164V408.312L207.797 408.048L208.289 404.304C208.313 404.184 208.365 404.088 208.445 404.016C208.533 403.936 208.645 403.896 208.781 403.896H209.861V408.084H218.261V420ZM218.789 403.944C218.789 404.152 218.745 404.348 218.657 404.532C218.577 404.708 218.465 404.864 218.321 405C218.185 405.136 218.025 405.244 217.841 405.324C217.657 405.404 217.461 405.444 217.253 405.444C217.045 405.444 216.849 405.404 216.665 405.324C216.489 405.244 216.333 405.136 216.197 405C216.061 404.864 215.953 404.708 215.873 404.532C215.793 404.348 215.753 404.152 215.753 403.944C215.753 403.736 215.793 403.54 215.873 403.356C215.953 403.164 216.061 403 216.197 402.864C216.333 402.72 216.489 402.608 216.665 402.528C216.849 402.448 217.045 402.408 217.253 402.408C217.461 402.408 217.657 402.448 217.841 402.528C218.025 402.608 218.185 402.72 218.321 402.864C218.465 403 218.577 403.164 218.657 403.356C218.745 403.54 218.789 403.736 218.789 403.944ZM232.186 407.844L227.23 420H225.31L220.354 407.844H222.094C222.27 407.844 222.414 407.888 222.526 407.976C222.638 408.064 222.714 408.168 222.754 408.288L225.838 416.112C225.934 416.408 226.018 416.696 226.09 416.976C226.162 417.256 226.23 417.536 226.294 417.816C226.358 417.536 226.426 417.256 226.498 416.976C226.57 416.696 226.658 416.408 226.762 416.112L229.882 408.288C229.93 408.16 230.01 408.056 230.122 407.976C230.234 407.888 230.366 407.844 230.518 407.844H232.186ZM236.401 407.844V420H234.265V407.844H236.401ZM236.857 404.028C236.857 404.236 236.813 404.432 236.725 404.616C236.645 404.792 236.533 404.952 236.389 405.096C236.253 405.232 236.089 405.34 235.897 405.42C235.713 405.5 235.517 405.54 235.309 405.54C235.101 405.54 234.905 405.5 234.721 405.42C234.545 405.34 234.389 405.232 234.253 405.096C234.117 404.952 234.009 404.792 233.929 404.616C233.849 404.432 233.809 404.236 233.809 404.028C233.809 403.82 233.849 403.624 233.929 403.44C234.009 403.248 234.117 403.084 234.253 402.948C234.389 402.804 234.545 402.692 234.721 402.612C234.905 402.532 235.101 402.492 235.309 402.492C235.517 402.492 235.713 402.532 235.897 402.612C236.089 402.692 236.253 402.804 236.389 402.948C236.533 403.084 236.645 403.248 236.725 403.44C236.813 403.624 236.857 403.82 236.857 404.028ZM243.643 420.192C242.683 420.192 241.943 419.924 241.423 419.388C240.911 418.852 240.655 418.08 240.655 417.072V409.632H239.191C239.063 409.632 238.955 409.596 238.867 409.524C238.779 409.444 238.735 409.324 238.735 409.164V408.312L240.727 408.06L241.219 404.304C241.243 404.184 241.295 404.088 241.375 404.016C241.463 403.936 241.575 403.896 241.711 403.896H242.791V408.084H246.307V409.632H242.791V416.928C242.791 417.44 242.915 417.82 243.163 418.068C243.411 418.316 243.731 418.44 244.123 418.44C244.347 418.44 244.539 418.412 244.699 418.356C244.867 418.292 245.011 418.224 245.131 418.152C245.251 418.08 245.351 418.016 245.431 417.96C245.519 417.896 245.595 417.864 245.659 417.864C245.771 417.864 245.871 417.932 245.959 418.068L246.583 419.088C246.215 419.432 245.771 419.704 245.251 419.904C244.731 420.096 244.195 420.192 243.643 420.192ZM259 407.844L252.22 423.588C252.148 423.748 252.056 423.876 251.944 423.972C251.84 424.068 251.676 424.116 251.452 424.116H249.868L252.088 419.292L247.072 407.844H248.92C249.104 407.844 249.248 407.892 249.352 407.988C249.464 408.076 249.54 408.176 249.58 408.288L252.832 415.944C252.96 416.28 253.068 416.632 253.156 417C253.268 416.624 253.388 416.268 253.516 415.932L256.672 408.288C256.72 408.16 256.8 408.056 256.912 407.976C257.032 407.888 257.164 407.844 257.308 407.844H259ZM270.174 420.192C269.214 420.192 268.474 419.924 267.954 419.388C267.442 418.852 267.186 418.08 267.186 417.072V409.632H265.722C265.594 409.632 265.486 409.596 265.398 409.524C265.31 409.444 265.266 409.324 265.266 409.164V408.312L267.258 408.06L267.75 404.304C267.774 404.184 267.826 404.088 267.906 404.016C267.994 403.936 268.106 403.896 268.242 403.896H269.322V408.084H272.838V409.632H269.322V416.928C269.322 417.44 269.446 417.82 269.694 418.068C269.942 418.316 270.262 418.44 270.654 418.44C270.878 418.44 271.07 418.412 271.23 418.356C271.398 418.292 271.542 418.224 271.662 418.152C271.782 418.08 271.882 418.016 271.962 417.96C272.05 417.896 272.126 417.864 272.19 417.864C272.302 417.864 272.402 417.932 272.49 418.068L273.114 419.088C272.746 419.432 272.302 419.704 271.782 419.904C271.262 420.096 270.726 420.192 270.174 420.192ZM280.097 407.652C280.985 407.652 281.785 407.8 282.497 408.096C283.209 408.392 283.817 408.812 284.321 409.356C284.825 409.9 285.209 410.56 285.473 411.336C285.745 412.104 285.881 412.964 285.881 413.916C285.881 414.876 285.745 415.74 285.473 416.508C285.209 417.276 284.825 417.932 284.321 418.476C283.817 419.02 283.209 419.44 282.497 419.736C281.785 420.024 280.985 420.168 280.097 420.168C279.201 420.168 278.393 420.024 277.673 419.736C276.961 419.44 276.353 419.02 275.849 418.476C275.345 417.932 274.957 417.276 274.685 416.508C274.421 415.74 274.289 414.876 274.289 413.916C274.289 412.964 274.421 412.104 274.685 411.336C274.957 410.56 275.345 409.9 275.849 409.356C276.353 408.812 276.961 408.392 277.673 408.096C278.393 407.8 279.201 407.652 280.097 407.652ZM280.097 418.5C281.297 418.5 282.193 418.1 282.785 417.3C283.377 416.492 283.673 415.368 283.673 413.928C283.673 412.48 283.377 411.352 282.785 410.544C282.193 409.736 281.297 409.332 280.097 409.332C279.489 409.332 278.957 409.436 278.501 409.644C278.053 409.852 277.677 410.152 277.373 410.544C277.077 410.936 276.853 411.42 276.701 411.996C276.557 412.564 276.485 413.208 276.485 413.928C276.485 415.368 276.781 416.492 277.373 417.3C277.973 418.1 278.881 418.5 280.097 418.5ZM302.651 410.736C302.251 410.2 301.819 409.828 301.355 409.62C300.891 409.404 300.371 409.296 299.795 409.296C298.667 409.296 297.799 409.7 297.191 410.508C296.583 411.316 296.279 412.468 296.279 413.964C296.279 414.756 296.347 415.436 296.483 416.004C296.619 416.564 296.819 417.028 297.083 417.396C297.347 417.756 297.671 418.02 298.055 418.188C298.439 418.356 298.875 418.44 299.363 418.44C300.067 418.44 300.679 418.28 301.199 417.96C301.727 417.64 302.211 417.188 302.651 416.604V410.736ZM304.787 402.324V420H303.515C303.211 420 303.019 419.852 302.939 419.556L302.747 418.08C302.227 418.704 301.635 419.208 300.971 419.592C300.307 419.976 299.539 420.168 298.667 420.168C297.971 420.168 297.339 420.036 296.771 419.772C296.203 419.5 295.719 419.104 295.319 418.584C294.919 418.064 294.611 417.416 294.395 416.64C294.179 415.864 294.071 414.972 294.071 413.964C294.071 413.068 294.191 412.236 294.431 411.468C294.671 410.692 295.015 410.02 295.463 409.452C295.911 408.884 296.459 408.44 297.107 408.12C297.763 407.792 298.499 407.628 299.315 407.628C300.059 407.628 300.695 407.756 301.223 408.012C301.759 408.26 302.235 408.608 302.651 409.056V402.324H304.787ZM310.417 407.844V420H308.281V407.844H310.417ZM310.873 404.028C310.873 404.236 310.829 404.432 310.741 404.616C310.661 404.792 310.549 404.952 310.405 405.096C310.269 405.232 310.105 405.34 309.913 405.42C309.729 405.5 309.533 405.54 309.325 405.54C309.117 405.54 308.921 405.5 308.737 405.42C308.561 405.34 308.405 405.232 308.269 405.096C308.133 404.952 308.025 404.792 307.945 404.616C307.865 404.432 307.825 404.236 307.825 404.028C307.825 403.82 307.865 403.624 307.945 403.44C308.025 403.248 308.133 403.084 308.269 402.948C308.405 402.804 308.561 402.692 308.737 402.612C308.921 402.532 309.117 402.492 309.325 402.492C309.533 402.492 309.729 402.532 309.913 402.612C310.105 402.692 310.269 402.804 310.405 402.948C310.549 403.084 310.661 403.248 310.741 403.44C310.829 403.624 310.873 403.82 310.873 404.028ZM321.006 409.848C320.91 410.024 320.762 410.112 320.562 410.112C320.442 410.112 320.306 410.068 320.154 409.98C320.002 409.892 319.814 409.796 319.59 409.692C319.374 409.58 319.114 409.48 318.81 409.392C318.506 409.296 318.146 409.248 317.73 409.248C317.37 409.248 317.046 409.296 316.758 409.392C316.47 409.48 316.222 409.604 316.014 409.764C315.814 409.924 315.658 410.112 315.546 410.328C315.442 410.536 315.39 410.764 315.39 411.012C315.39 411.324 315.478 411.584 315.654 411.792C315.838 412 316.078 412.18 316.374 412.332C316.67 412.484 317.006 412.62 317.382 412.74C317.758 412.852 318.142 412.976 318.534 413.112C318.934 413.24 319.322 413.384 319.698 413.544C320.074 413.704 320.41 413.904 320.706 414.144C321.002 414.384 321.238 414.68 321.414 415.032C321.598 415.376 321.69 415.792 321.69 416.28C321.69 416.84 321.59 417.36 321.39 417.84C321.19 418.312 320.894 418.724 320.502 419.076C320.11 419.42 319.63 419.692 319.062 419.892C318.494 420.092 317.838 420.192 317.094 420.192C316.246 420.192 315.478 420.056 314.79 419.784C314.102 419.504 313.518 419.148 313.038 418.716L313.542 417.9C313.606 417.796 313.682 417.716 313.77 417.66C313.858 417.604 313.97 417.576 314.106 417.576C314.25 417.576 314.402 417.632 314.562 417.744C314.722 417.856 314.914 417.98 315.138 418.116C315.37 418.252 315.65 418.376 315.978 418.488C316.306 418.6 316.714 418.656 317.202 418.656C317.618 418.656 317.982 418.604 318.294 418.5C318.606 418.388 318.866 418.24 319.074 418.056C319.282 417.872 319.434 417.66 319.53 417.42C319.634 417.18 319.686 416.924 319.686 416.652C319.686 416.316 319.594 416.04 319.41 415.824C319.234 415.6 318.998 415.412 318.702 415.26C318.406 415.1 318.066 414.964 317.682 414.852C317.306 414.732 316.918 414.608 316.518 414.48C316.126 414.352 315.738 414.208 315.354 414.048C314.978 413.88 314.642 413.672 314.346 413.424C314.05 413.176 313.81 412.872 313.626 412.512C313.45 412.144 313.362 411.7 313.362 411.18C313.362 410.716 313.458 410.272 313.65 409.848C313.842 409.416 314.122 409.04 314.49 408.72C314.858 408.392 315.31 408.132 315.846 407.94C316.382 407.748 316.994 407.652 317.682 407.652C318.482 407.652 319.198 407.78 319.83 408.036C320.47 408.284 321.022 408.628 321.486 409.068L321.006 409.848ZM326.457 417.072C326.849 417.6 327.277 417.972 327.741 418.188C328.205 418.404 328.725 418.512 329.301 418.512C330.437 418.512 331.309 418.108 331.917 417.3C332.525 416.492 332.829 415.34 332.829 413.844C332.829 413.052 332.757 412.372 332.613 411.804C332.477 411.236 332.277 410.772 332.013 410.412C331.749 410.044 331.425 409.776 331.041 409.608C330.657 409.44 330.221 409.356 329.733 409.356C329.037 409.356 328.425 409.516 327.897 409.836C327.377 410.156 326.897 410.608 326.457 411.192V417.072ZM326.349 409.728C326.861 409.096 327.453 408.588 328.125 408.204C328.797 407.82 329.565 407.628 330.429 407.628C331.133 407.628 331.769 407.764 332.337 408.036C332.905 408.3 333.389 408.696 333.789 409.224C334.189 409.744 334.497 410.392 334.713 411.168C334.929 411.944 335.037 412.836 335.037 413.844C335.037 414.74 334.917 415.576 334.677 416.352C334.437 417.12 334.089 417.788 333.633 418.356C333.185 418.916 332.633 419.36 331.977 419.688C331.329 420.008 330.597 420.168 329.781 420.168C329.037 420.168 328.397 420.044 327.861 419.796C327.333 419.54 326.865 419.188 326.457 418.74V424.116H324.309V407.844H325.593C325.897 407.844 326.085 407.992 326.157 408.288L326.349 409.728ZM339.97 402.324V420H337.834V402.324H339.97ZM350.022 414.528C349.038 414.56 348.198 414.64 347.502 414.768C346.814 414.888 346.25 415.048 345.81 415.248C345.378 415.448 345.062 415.684 344.862 415.956C344.67 416.228 344.574 416.532 344.574 416.868C344.574 417.188 344.626 417.464 344.73 417.696C344.834 417.928 344.974 418.12 345.15 418.272C345.334 418.416 345.546 418.524 345.786 418.596C346.034 418.66 346.298 418.692 346.578 418.692C346.954 418.692 347.298 418.656 347.61 418.584C347.922 418.504 348.214 418.392 348.486 418.248C348.766 418.104 349.03 417.932 349.278 417.732C349.534 417.532 349.782 417.304 350.022 417.048V414.528ZM343.122 409.56C343.794 408.912 344.518 408.428 345.294 408.108C346.07 407.788 346.93 407.628 347.874 407.628C348.554 407.628 349.158 407.74 349.686 407.964C350.214 408.188 350.658 408.5 351.018 408.9C351.378 409.3 351.65 409.784 351.834 410.352C352.018 410.92 352.11 411.544 352.11 412.224V420H351.162C350.954 420 350.794 419.968 350.682 419.904C350.57 419.832 350.482 419.696 350.418 419.496L350.178 418.344C349.858 418.64 349.546 418.904 349.242 419.136C348.938 419.36 348.618 419.552 348.282 419.712C347.946 419.864 347.586 419.98 347.202 420.06C346.826 420.148 346.406 420.192 345.942 420.192C345.47 420.192 345.026 420.128 344.61 420C344.194 419.864 343.83 419.664 343.518 419.4C343.214 419.136 342.97 418.804 342.786 418.404C342.61 417.996 342.522 417.516 342.522 416.964C342.522 416.484 342.654 416.024 342.918 415.584C343.182 415.136 343.61 414.74 344.202 414.396C344.794 414.052 345.566 413.772 346.518 413.556C347.47 413.332 348.638 413.204 350.022 413.172V412.224C350.022 411.28 349.818 410.568 349.41 410.088C349.002 409.6 348.406 409.356 347.622 409.356C347.094 409.356 346.65 409.424 346.29 409.56C345.938 409.688 345.63 409.836 345.366 410.004C345.11 410.164 344.886 410.312 344.694 410.448C344.51 410.576 344.326 410.64 344.142 410.64C343.998 410.64 343.874 410.604 343.77 410.532C343.666 410.452 343.578 410.356 343.506 410.244L343.122 409.56ZM365.571 407.844L358.791 423.588C358.719 423.748 358.627 423.876 358.515 423.972C358.411 424.068 358.247 424.116 358.023 424.116H356.439L358.659 419.292L353.643 407.844H355.491C355.675 407.844 355.819 407.892 355.923 407.988C356.035 408.076 356.111 408.176 356.151 408.288L359.403 415.944C359.531 416.28 359.639 416.632 359.727 417C359.839 416.624 359.959 416.268 360.087 415.932L363.243 408.288C363.291 408.16 363.371 408.056 363.483 407.976C363.603 407.888 363.735 407.844 363.879 407.844H365.571ZM382.891 407.844L376.111 423.588C376.039 423.748 375.947 423.876 375.835 423.972C375.731 424.068 375.567 424.116 375.343 424.116H373.759L375.979 419.292L370.963 407.844H372.811C372.995 407.844 373.139 407.892 373.243 407.988C373.355 408.076 373.431 408.176 373.471 408.288L376.723 415.944C376.851 416.28 376.959 416.632 377.047 417C377.159 416.624 377.279 416.268 377.407 415.932L380.563 408.288C380.611 408.16 380.691 408.056 380.803 407.976C380.923 407.888 381.055 407.844 381.199 407.844H382.891ZM392.586 412.596C392.586 412.1 392.514 411.648 392.37 411.24C392.234 410.824 392.03 410.468 391.758 410.172C391.494 409.868 391.17 409.636 390.786 409.476C390.402 409.308 389.966 409.224 389.478 409.224C388.454 409.224 387.642 409.524 387.042 410.124C386.45 410.716 386.082 411.54 385.938 412.596H392.586ZM394.314 418.296C394.05 418.616 393.734 418.896 393.366 419.136C392.998 419.368 392.602 419.56 392.178 419.712C391.762 419.864 391.33 419.976 390.882 420.048C390.434 420.128 389.99 420.168 389.55 420.168C388.71 420.168 387.934 420.028 387.222 419.748C386.518 419.46 385.906 419.044 385.386 418.5C384.874 417.948 384.474 417.268 384.186 416.46C383.898 415.652 383.754 414.724 383.754 413.676C383.754 412.828 383.882 412.036 384.138 411.3C384.402 410.564 384.778 409.928 385.266 409.392C385.754 408.848 386.35 408.424 387.054 408.12C387.758 407.808 388.55 407.652 389.43 407.652C390.158 407.652 390.83 407.776 391.446 408.024C392.07 408.264 392.606 408.616 393.054 409.08C393.51 409.536 393.866 410.104 394.122 410.784C394.378 411.456 394.506 412.224 394.506 413.088C394.506 413.424 394.47 413.648 394.398 413.76C394.326 413.872 394.19 413.928 393.99 413.928H385.866C385.89 414.696 385.994 415.364 386.178 415.932C386.37 416.5 386.634 416.976 386.97 417.36C387.306 417.736 387.706 418.02 388.17 418.212C388.634 418.396 389.154 418.488 389.73 418.488C390.266 418.488 390.726 418.428 391.11 418.308C391.502 418.18 391.838 418.044 392.118 417.9C392.398 417.756 392.63 417.624 392.814 417.504C393.006 417.376 393.17 417.312 393.306 417.312C393.482 417.312 393.618 417.38 393.714 417.516L394.314 418.296ZM400.768 420.192C399.808 420.192 399.068 419.924 398.548 419.388C398.036 418.852 397.78 418.08 397.78 417.072V409.632H396.316C396.188 409.632 396.08 409.596 395.992 409.524C395.904 409.444 395.86 409.324 395.86 409.164V408.312L397.852 408.06L398.344 404.304C398.368 404.184 398.42 404.088 398.5 404.016C398.588 403.936 398.7 403.896 398.836 403.896H399.916V408.084H403.432V409.632H399.916V416.928C399.916 417.44 400.04 417.82 400.288 418.068C400.536 418.316 400.856 418.44 401.248 418.44C401.472 418.44 401.664 418.412 401.824 418.356C401.992 418.292 402.136 418.224 402.256 418.152C402.376 418.08 402.476 418.016 402.556 417.96C402.644 417.896 402.72 417.864 402.784 417.864C402.896 417.864 402.996 417.932 403.084 418.068L403.708 419.088C403.34 419.432 402.896 419.704 402.376 419.904C401.856 420.096 401.32 420.192 400.768 420.192ZM408.205 402.804V409.668C408.205 410.028 408.197 410.38 408.181 410.724C408.165 411.068 408.145 411.416 408.121 411.768C408.097 412.112 408.065 412.468 408.025 412.836C407.993 413.196 407.953 413.584 407.905 414H406.465C406.417 413.584 406.373 413.196 406.333 412.836C406.301 412.468 406.273 412.112 406.249 411.768C406.225 411.416 406.205 411.068 406.189 410.724C406.173 410.38 406.165 410.028 406.165 409.668V402.804H408.205ZM405.649 418.68C405.649 418.472 405.685 418.276 405.757 418.092C405.837 417.908 405.945 417.748 406.081 417.612C406.217 417.476 406.373 417.368 406.549 417.288C406.733 417.208 406.933 417.168 407.149 417.168C407.357 417.168 407.549 417.208 407.725 417.288C407.909 417.368 408.069 417.476 408.205 417.612C408.341 417.748 408.449 417.908 408.529 418.092C408.609 418.276 408.649 418.472 408.649 418.68C408.649 418.896 408.609 419.096 408.529 419.28C408.449 419.456 408.341 419.612 408.205 419.748C408.069 419.884 407.909 419.988 407.725 420.06C407.549 420.14 407.357 420.18 407.149 420.18C406.933 420.18 406.733 420.14 406.549 420.06C406.373 419.988 406.217 419.884 406.081 419.748C405.945 419.612 405.837 419.456 405.757 419.28C405.685 419.096 405.649 418.896 405.649 418.68Z" fill="#0F0F33"/>
<path d="M55.458 24.639V49H52.568V31.099C52.568 30.861 52.5737 30.606 52.585 30.334C52.6077 30.062 52.6303 29.7843 52.653 29.501L44.289 44.733C44.0283 45.243 43.6317 45.498 43.099 45.498H42.623C42.0903 45.498 41.6937 45.243 41.433 44.733L32.899 29.433C32.967 30.0337 33.001 30.589 33.001 31.099V49H30.111V24.639H32.542C32.8367 24.639 33.0633 24.6673 33.222 24.724C33.3807 24.7807 33.5337 24.9393 33.681 25.2L42.096 40.194C42.232 40.466 42.3623 40.7493 42.487 41.044C42.623 41.3387 42.7477 41.639 42.861 41.945C42.9743 41.639 43.0933 41.3387 43.218 41.044C43.3427 40.738 43.4787 40.449 43.626 40.177L51.888 25.2C52.024 24.9393 52.1713 24.7807 52.33 24.724C52.5 24.6673 52.7323 24.639 53.027 24.639H55.458ZM75.6827 31.779L66.0777 54.083C65.9757 54.3097 65.8454 54.491 65.6867 54.627C65.5394 54.763 65.3071 54.831 64.9897 54.831H62.7457L65.8907 47.997L58.7847 31.779H61.4027C61.6634 31.779 61.8674 31.847 62.0147 31.983C62.1734 32.1077 62.2811 32.2493 62.3377 32.408L66.9447 43.254C67.1261 43.73 67.2791 44.2287 67.4037 44.75C67.5624 44.2173 67.7324 43.713 67.9137 43.237L72.3847 32.408C72.4527 32.2267 72.5661 32.0793 72.7247 31.966C72.8947 31.8413 73.0817 31.779 73.2857 31.779H75.6827ZM96.0581 41.248C94.6641 41.2933 93.4741 41.4067 92.4881 41.588C91.5135 41.758 90.7145 41.9847 90.0911 42.268C89.4791 42.5513 89.0315 42.8857 88.7481 43.271C88.4761 43.6563 88.3401 44.087 88.3401 44.563C88.3401 45.0163 88.4138 45.4073 88.5611 45.736C88.7085 46.0647 88.9068 46.3367 89.1561 46.552C89.4168 46.756 89.7171 46.909 90.0571 47.011C90.4085 47.1017 90.7825 47.147 91.1791 47.147C91.7118 47.147 92.1991 47.096 92.6411 46.994C93.0831 46.8807 93.4968 46.722 93.8821 46.518C94.2788 46.314 94.6528 46.0703 95.0041 45.787C95.3668 45.5037 95.7181 45.1807 96.0581 44.818V41.248ZM86.2831 34.21C87.2351 33.292 88.2608 32.6063 89.3601 32.153C90.4595 31.6997 91.6778 31.473 93.0151 31.473C93.9785 31.473 94.8341 31.6317 95.5821 31.949C96.3301 32.2663 96.9591 32.7083 97.4691 33.275C97.9791 33.8417 98.3645 34.5273 98.6251 35.332C98.8858 36.1367 99.0161 37.0207 99.0161 37.984V49H97.6731C97.3785 49 97.1518 48.9547 96.9931 48.864C96.8345 48.762 96.7098 48.5693 96.6191 48.286L96.2791 46.654C95.8258 47.0733 95.3838 47.4473 94.9531 47.776C94.5225 48.0933 94.0691 48.3653 93.5931 48.592C93.1171 48.8073 92.6071 48.9717 92.0631 49.085C91.5305 49.2097 90.9355 49.272 90.2781 49.272C89.6095 49.272 88.9805 49.1813 88.3911 49C87.8018 48.8073 87.2861 48.524 86.8441 48.15C86.4135 47.776 86.0678 47.3057 85.8071 46.739C85.5578 46.161 85.4331 45.481 85.4331 44.699C85.4331 44.019 85.6201 43.3673 85.9941 42.744C86.3681 42.1093 86.9745 41.5483 87.8131 41.061C88.6518 40.5737 89.7455 40.177 91.0941 39.871C92.4428 39.5537 94.0975 39.3723 96.0581 39.327V37.984C96.0581 36.6467 95.7691 35.638 95.1911 34.958C94.6131 34.2667 93.7688 33.921 92.6581 33.921C91.9101 33.921 91.2811 34.0173 90.7711 34.21C90.2725 34.3913 89.8361 34.601 89.4621 34.839C89.0995 35.0657 88.7821 35.2753 88.5101 35.468C88.2495 35.6493 87.9888 35.74 87.7281 35.74C87.5241 35.74 87.3485 35.689 87.2011 35.587C87.0538 35.4737 86.9291 35.3377 86.8271 35.179L86.2831 34.21ZM115.861 34.839C115.77 34.9637 115.679 35.06 115.589 35.128C115.498 35.196 115.373 35.23 115.215 35.23C115.045 35.23 114.858 35.162 114.654 35.026C114.45 34.8787 114.195 34.72 113.889 34.55C113.594 34.38 113.226 34.227 112.784 34.091C112.353 33.9437 111.82 33.87 111.186 33.87C110.336 33.87 109.588 34.023 108.942 34.329C108.296 34.6237 107.752 35.0543 107.31 35.621C106.879 36.1877 106.55 36.8733 106.324 37.678C106.108 38.4827 106.001 39.3837 106.001 40.381C106.001 41.4237 106.12 42.353 106.358 43.169C106.596 43.9737 106.93 44.6537 107.361 45.209C107.803 45.753 108.33 46.1723 108.942 46.467C109.565 46.7503 110.262 46.892 111.033 46.892C111.769 46.892 112.376 46.807 112.852 46.637C113.328 46.4557 113.719 46.2573 114.025 46.042C114.342 45.8267 114.603 45.634 114.807 45.464C115.022 45.2827 115.232 45.192 115.436 45.192C115.685 45.192 115.878 45.2883 116.014 45.481L116.864 46.586C116.49 47.0507 116.065 47.4473 115.589 47.776C115.113 48.1047 114.597 48.3823 114.042 48.609C113.498 48.8243 112.925 48.983 112.325 49.085C111.724 49.187 111.112 49.238 110.489 49.238C109.412 49.238 108.409 49.0397 107.48 48.643C106.562 48.2463 105.763 47.674 105.083 46.926C104.403 46.1667 103.87 45.2373 103.485 44.138C103.099 43.0387 102.907 41.7863 102.907 40.381C102.907 39.1003 103.082 37.916 103.434 36.828C103.796 35.74 104.318 34.805 104.998 34.023C105.689 33.2297 106.533 32.612 107.531 32.17C108.539 31.728 109.695 31.507 110.999 31.507C112.211 31.507 113.277 31.7053 114.195 32.102C115.124 32.4873 115.946 33.037 116.66 33.751L115.861 34.839ZM136.342 49H133.316V34.312H124.442V44.648C124.442 45.3733 124.618 45.9117 124.969 46.263C125.32 46.6143 125.774 46.79 126.329 46.79C126.646 46.79 126.918 46.7503 127.145 46.671C127.383 46.5803 127.587 46.484 127.757 46.382C127.927 46.28 128.069 46.1893 128.182 46.11C128.307 46.0193 128.414 45.974 128.505 45.974C128.664 45.974 128.805 46.0703 128.93 46.263L129.814 47.708C129.293 48.1953 128.664 48.5807 127.927 48.864C127.19 49.136 126.431 49.272 125.649 49.272C124.289 49.272 123.241 48.8923 122.504 48.133C121.779 47.3737 121.416 46.28 121.416 44.852V34.312H119.342C119.161 34.312 119.008 34.261 118.883 34.159C118.758 34.0457 118.696 33.8757 118.696 33.649V32.442L121.518 32.068L122.215 26.764C122.249 26.594 122.323 26.458 122.436 26.356C122.561 26.2427 122.719 26.186 122.912 26.186H124.442V32.119H136.342V49ZM137.09 26.254C137.09 26.5487 137.028 26.8263 136.903 27.087C136.79 27.3363 136.631 27.5573 136.427 27.75C136.234 27.9427 136.008 28.0957 135.747 28.209C135.486 28.3223 135.209 28.379 134.914 28.379C134.619 28.379 134.342 28.3223 134.081 28.209C133.832 28.0957 133.611 27.9427 133.418 27.75C133.225 27.5573 133.072 27.3363 132.959 27.087C132.846 26.8263 132.789 26.5487 132.789 26.254C132.789 25.9593 132.846 25.6817 132.959 25.421C133.072 25.149 133.225 24.9167 133.418 24.724C133.611 24.52 133.832 24.3613 134.081 24.248C134.342 24.1347 134.619 24.078 134.914 24.078C135.209 24.078 135.486 24.1347 135.747 24.248C136.008 24.3613 136.234 24.52 136.427 24.724C136.631 24.9167 136.79 25.149 136.903 25.421C137.028 25.6817 137.09 25.9593 137.09 26.254ZM156.319 31.779L149.298 49H146.578L139.557 31.779H142.022C142.271 31.779 142.475 31.8413 142.634 31.966C142.793 32.0907 142.9 32.238 142.957 32.408L147.326 43.492C147.462 43.9113 147.581 44.3193 147.683 44.716C147.785 45.1127 147.881 45.5093 147.972 45.906C148.063 45.5093 148.159 45.1127 148.261 44.716C148.363 44.3193 148.488 43.9113 148.635 43.492L153.055 32.408C153.123 32.2267 153.236 32.0793 153.395 31.966C153.554 31.8413 153.741 31.779 153.956 31.779H156.319ZM162.54 31.779V49H159.514V31.779H162.54ZM163.186 26.373C163.186 26.6677 163.124 26.9453 162.999 27.206C162.886 27.4553 162.727 27.682 162.523 27.886C162.331 28.0787 162.098 28.2317 161.826 28.345C161.566 28.4583 161.288 28.515 160.993 28.515C160.699 28.515 160.421 28.4583 160.16 28.345C159.911 28.2317 159.69 28.0787 159.497 27.886C159.305 27.682 159.152 27.4553 159.038 27.206C158.925 26.9453 158.868 26.6677 158.868 26.373C158.868 26.0783 158.925 25.8007 159.038 25.54C159.152 25.268 159.305 25.0357 159.497 24.843C159.69 24.639 159.911 24.4803 160.16 24.367C160.421 24.2537 160.699 24.197 160.993 24.197C161.288 24.197 161.566 24.2537 161.826 24.367C162.098 24.4803 162.331 24.639 162.523 24.843C162.727 25.0357 162.886 25.268 162.999 25.54C163.124 25.8007 163.186 26.0783 163.186 26.373ZM173.049 49.272C171.689 49.272 170.641 48.8923 169.904 48.133C169.179 47.3737 168.816 46.28 168.816 44.852V34.312H166.742C166.561 34.312 166.408 34.261 166.283 34.159C166.159 34.0457 166.096 33.8757 166.096 33.649V32.442L168.918 32.085L169.615 26.764C169.649 26.594 169.723 26.458 169.836 26.356C169.961 26.2427 170.12 26.186 170.312 26.186H171.842V32.119H176.823V34.312H171.842V44.648C171.842 45.3733 172.018 45.9117 172.369 46.263C172.721 46.6143 173.174 46.79 173.729 46.79C174.047 46.79 174.319 46.7503 174.545 46.671C174.783 46.5803 174.987 46.484 175.157 46.382C175.327 46.28 175.469 46.1893 175.582 46.11C175.707 46.0193 175.815 45.974 175.905 45.974C176.064 45.974 176.206 46.0703 176.33 46.263L177.214 47.708C176.693 48.1953 176.064 48.5807 175.327 48.864C174.591 49.136 173.831 49.272 173.049 49.272ZM195.056 31.779L185.451 54.083C185.349 54.3097 185.218 54.491 185.06 54.627C184.912 54.763 184.68 54.831 184.363 54.831H182.119L185.264 47.997L178.158 31.779H180.776C181.036 31.779 181.24 31.847 181.388 31.983C181.546 32.1077 181.654 32.2493 181.711 32.408L186.318 43.254C186.499 43.73 186.652 44.2287 186.777 44.75C186.935 44.2173 187.105 43.713 187.287 43.237L191.758 32.408C191.826 32.2267 191.939 32.0793 192.098 31.966C192.268 31.8413 192.455 31.779 192.659 31.779H195.056Z" fill="#C91757"/>
<defs>
<clipPath id="clip0">
<rect x="79.4082" y="193.98" width="199.125" height="62.0359" fill="white"/>
</clipPath>
</defs>
</svg>
