<svg width="51" height="31" viewBox="0 0 51 31" fill="none" xmlns="http://www.w3.org/2000/svg">
<path d="M31.8259 13.2857C35.348 13.2857 38.1698 10.3186 38.1698 6.64286C38.1698 2.96714 35.348 0 31.8259 0C28.3038 0 25.4607 2.96714 25.4607 6.64286C25.4607 10.3186 28.3038 13.2857 31.8259 13.2857ZM14.8521 13.2857C18.3741 13.2857 21.196 10.3186 21.196 6.64286C21.196 2.96714 18.3741 0 14.8521 0C11.33 0 8.4869 2.96714 8.4869 6.64286C8.4869 10.3186 11.33 13.2857 14.8521 13.2857ZM14.8521 17.7143C9.90846 17.7143 0 20.305 0 25.4643V31H29.7042V25.4643C29.7042 20.305 19.7957 17.7143 14.8521 17.7143ZM31.8259 17.7143C31.2106 17.7143 30.5104 17.7586 29.7678 17.825C32.229 19.685 33.9476 22.1871 33.9476 25.4643V31H46.678V25.4643C46.678 20.305 36.7695 17.7143 31.8259 17.7143Z" fill="#0F0F33"/>
<path d="M34.7046 24.9779V30.9996H51.0008V24.9779C50.6465 20.1605 37.1845 17.3504 29.3906 17.7518C33.2876 20.1605 35.059 23.5728 34.7046 24.9779Z" fill="#C91757"/>
<ellipse cx="31.9836" cy="6.64286" rx="6.91525" ry="6.64286" fill="#C91757"/>
</svg>
